<?xml version="1.0" encoding="UTF-8"?>
<!DOCTYPE svg PUBLIC "-//W3C//DTD SVG 1.1//EN" "http://www.w3.org/Graphics/SVG/1.1/DTD/svg11.dtd">
<!-- Creator: CorelDRAW 2017 -->
<svg xmlns="http://www.w3.org/2000/svg" xml:space="preserve" width="1160px" height="329px" version="1.1" style="shape-rendering:geometricPrecision; text-rendering:geometricPrecision; image-rendering:optimizeQuality; fill-rule:evenodd; clip-rule:evenodd"
viewBox="0 0 906.5 257.17"
 xmlns:xlink="http://www.w3.org/1999/xlink">
 <defs>
  <style type="text/css">
   <![CDATA[
    .fil1 {fill:#FECC00}
    .fil2 {fill:#515252}
    .fil0 {fill:#E31A3C;fill-rule:nonzero}
   ]]>
  </style>
 </defs>
 <g id="Layer_x0020_1">
  <metadata id="CorelCorpID_0Corel-Layer"/>
  <path class="fil0" d="M185.45 254.01c-37.91,4.24 -75.82,4.18 -113.73,0 -40.44,-4.46 -64.11,-28.13 -68.56,-68.56 -4.18,-37.91 -4.24,-75.82 0,-113.73 4.52,-40.42 28.14,-64.11 68.56,-68.57 37.91,-4.18 75.82,-4.23 113.73,0 40.42,4.52 64,28.14 68.57,68.57 4.28,37.91 4.12,75.82 0,113.73 -4.4,40.45 -28.13,64.05 -68.57,68.56z"/>
  <path class="fil1" d="M69.8 182.78l117.9 0 0 -13.26 -117.9 0 0 13.26zm58.61 -135.82l15.65 14.84 -15.65 14.53 -15.32 -14.53 15.32 -14.84zm82.59 63.8c-20.98,-17.38 -48.29,-28.42 -78.59,-29.37l0 82.45 28.64 0c5,0 6.66,-4.43 6.66,-4.43l20.98 -48.01c2,1.27 3.99,2.54 5.67,3.8l-21.32 48.64 14.99 0 22.97 -53.08zm-64.6 41.05l0 -55.89c10.66,1.58 20.65,4.74 30.32,9.16l-19.66 44.85c-0.7,1.61 -1.81,1.9 -3.33,1.9l-7.33 -0.02zm-100.23 -41.05c20.98,-17.38 48.62,-28.42 78.59,-29.37l0 82.45 -28.64 0c-5,0 -6.66,-4.43 -6.66,-4.43l-20.98 -48.01c-2,1.27 -4.01,2.54 -5.67,3.8l21.65 48.64 -15.32 0 -22.97 -53.08zm64.6 41.05l0 -55.89c-10.67,1.58 -20.65,4.74 -29.97,9.16l19.32 44.85c0.67,1.56 1.95,1.9 3.32,1.9l7.33 -0.02z"/>
  <g id="_2085734467376">
   <polygon class="fil2" points="436.51,168.95 398.74,113.3 433.16,61.25 406.64,61.25 379.33,105.31 361.53,105.31 361.53,61.25 338.28,61.25 338.28,168.95 361.53,168.95 361.53,123.39 379.98,123.39 409.2,168.95 "/>
   <path class="fil2" d="M861.37 153.36c-14.2,0 -24.6,-10.87 -24.6,-24.96 0,-14.1 10.41,-24.91 24.6,-24.91 14.15,0 23.82,10.99 23.82,25.04 0,14.07 -9.63,24.83 -23.82,24.83zm30.42 -65.54l-5.43 10.73c-6.76,-7.45 -16.16,-13.45 -29.12,-13.45 -25.32,0 -42.73,18.09 -42.73,43.25 0,25.14 17.32,43.55 42.73,43.55 12.91,0 22.1,-5.52 29.27,-13.37l5.08 10.31 14.91 0 0 -81.02 -14.71 0z"/>
   <path class="fil2" d="M729.2 87.9l-14.43 0 0 81.05 22.08 0 0 -42.65c0,-12.62 7.8,-22.72 21,-22.72 11.76,0 17.49,9.26 17.49,20.11l0 45.26 22.09 0 0 -50.46c0,-19.06 -11.91,-33.25 -31.53,-33.25 -15.32,0 -21.25,3.79 -30.81,14.42l-5.89 -11.76z"/>
   <path class="fil2" d="M628.25 128.43c0,-13.95 9.69,-24.55 23.85,-24.55 14.12,0 23.86,10.65 23.86,24.55 0,13.94 -9.69,24.54 -23.86,24.54 -14.16,0 -23.85,-10.6 -23.85,-24.54zm23.85 43.47c25.62,0 45.97,-17.08 45.97,-43.47 0,-26.45 -20.29,-43.47 -45.97,-43.47 -25.73,0 -45.96,16.97 -45.96,43.47 0,26.44 20.29,43.47 45.96,43.47z"/>
   <path class="fil2" d="M558.27 87.9l-13.54 0 0 81.05 22.09 0 0 -41.38c0,-21.8 16.23,-22.82 32.41,-22.82l0 -19.42c-16.47,1.21 -22.84,0.89 -34.74,14.66l-6.22 -12.09z"/>
   <path class="fil2" d="M459.26 128.43c0,-13.95 9.69,-24.55 23.85,-24.55 14.12,0 23.85,10.65 23.85,24.55 0,13.94 -9.69,24.54 -23.85,24.54 -14.16,0 -23.85,-10.6 -23.85,-24.54zm23.85 43.47c25.62,0 45.97,-17.08 45.97,-43.47 0,-26.45 -20.3,-43.47 -45.97,-43.47 -25.73,0 -45.97,16.97 -45.97,43.47 0,26.44 20.29,43.47 45.97,43.47z"/>
  </g>
 </g>
</svg>
