<svg xmlns="http://www.w3.org/2000/svg" width="256" height="80" viewBox="0 0 256 80">
  <g id="logo_credit_plus" transform="translate(-462 -10)">
    <rect id="Rectangle_144" data-name="Rectangle 144" width="256" height="80" transform="translate(462 10)" fill="none"/>
    <g id="Group_68" data-name="Group 68" transform="translate(462 29.2)">
      <g id="CP_text_white">
        <g id="Group_67" data-name="Group 67" transform="translate(88.463 2.466)">
          <path id="Path_17" data-name="Path 17" d="M57.213,22.727A11.468,11.468,0,0,1,52,23.958c-5.633,0-9.6-3.9-9.6-9.026C42.4,9.6,46.781,5.7,52.206,5.7A11.034,11.034,0,0,1,57,6.726v3.282A10.171,10.171,0,0,0,52,8.572a6.315,6.315,0,0,0-6.468,6.359A6.151,6.151,0,0,0,52,21.086,7.7,7.7,0,0,0,57,19.444l.209,3.282Z" transform="translate(-42.4 3.531)" fill="#a1cc3a"/>
          <path id="Path_18" data-name="Path 18" d="M51.7,6.005h3.13V8.467h0A6.558,6.558,0,0,1,60.046,5.8a2.687,2.687,0,0,1,1.252.205V9.082a2.687,2.687,0,0,0-1.252-.205,5.672,5.672,0,0,0-5.216,3.077V23.237H51.7Z" transform="translate(-32.297 3.637)" fill="#a1cc3a"/>
          <path id="Path_19" data-name="Path 19" d="M60.538,15.542c.417,3.487,3.13,5.334,6.468,5.334a11.18,11.18,0,0,0,6.051-2.051v3.487A12.324,12.324,0,0,1,66.8,23.952c-5.425,0-9.6-3.693-9.6-9.026A8.587,8.587,0,0,1,65.963,5.9c4.381,0,8.137,2.872,8.137,8.411a3.937,3.937,0,0,1-.209,1.641H60.538Zm0-2.462H70.97a4.805,4.805,0,0,0-5.007-4.718A5.462,5.462,0,0,0,60.538,13.08Z" transform="translate(-26.321 3.742)" fill="#a1cc3a"/>
          <path id="Path_20" data-name="Path 20" d="M76.184,10.431a11.516,11.516,0,0,1,4.173.821h0V1.2H83.7V28.074h-3.13V27.048h0a9.011,9.011,0,0,1-5.007,1.436C70.76,28.484,67,25,67,19.663A8.849,8.849,0,0,1,76.184,10.431Zm-.209,15.386a8.66,8.66,0,0,0,4.59-1.436V14.329A9.833,9.833,0,0,0,76.184,13.3c-3.756,0-6.051,2.872-6.051,6.359S72.22,25.817,75.976,25.817Z" transform="translate(-15.679 -1.2)" fill="#a1cc3a"/>
          <path id="Path_21" data-name="Path 21" d="M79.7,1.9a2.3,2.3,0,0,1,2.3,2.257,2.3,2.3,0,0,1-4.59,0A2.3,2.3,0,0,1,79.7,1.9Zm-1.669,8.206h3.13V27.543h-3.13Z" transform="translate(-4.376 -0.464)" fill="#a1cc3a"/>
          <path id="Path_22" data-name="Path 22" d="M84.438,19.916V11.506H81.1V8.634h3.338V3.915l3.13-.615V8.634h5.216v2.872H87.568v7.8c0,2.051.417,4.1,2.712,4.1a6.883,6.883,0,0,0,2.712-.821V25.66a6.478,6.478,0,0,1-3.13.615A5.259,5.259,0,0,1,85.9,24.635C84.856,23.814,84.438,22.378,84.438,19.916Z" transform="translate(-0.357 1.008)" fill="#a1cc3a"/>
          <path id="Path_23" data-name="Path 23" d="M95.625,31.138H90.2V6.11h5.425v.821h0A8.323,8.323,0,0,1,99.8,5.7c4.59,0,8.346,3.487,8.346,9.026a8.855,8.855,0,0,1-9.18,9.231,7.423,7.423,0,0,1-3.338-.615h0Zm2.712-11.693a4.173,4.173,0,0,0,4.381-4.513c0-2.667-1.669-4.718-4.173-4.718a5.038,5.038,0,0,0-2.921,1.026v7.59A5.292,5.292,0,0,0,98.337,19.444Z" transform="translate(9.529 3.531)"/>
          <path id="Path_24" data-name="Path 24" d="M100.5,1.2h5.425V28.074H100.5Z" transform="translate(20.719 -1.2)"/>
          <path id="Path_25" data-name="Path 25" d="M116.984,21.7a8.008,8.008,0,0,1-5.425,2.051,6.208,6.208,0,0,1-4.59-1.641,7.439,7.439,0,0,1-1.669-5.334V5.9h5.425v9.847a3.52,3.52,0,0,0,.626,2.462,2.282,2.282,0,0,0,1.878.821,5.233,5.233,0,0,0,3.547-1.641V5.9H122.2V23.337h-5.425l.209-1.641Z" transform="translate(25.934 3.742)"/>
          <path id="Path_26" data-name="Path 26" d="M115.717,17.8a15.1,15.1,0,0,0,6.885,2.051c1.46,0,2.5-.41,2.5-1.436,0-1.436-1.878-1.231-4.59-1.846-3.338-.821-5.216-2.257-5.216-5.129,0-3.693,3.338-5.744,7.72-5.744A15.049,15.049,0,0,1,129.7,7.136v4.718a15.724,15.724,0,0,0-6.676-1.846c-1.46,0-2.3.41-2.3,1.231,0,1.231,1.878,1.231,4.59,1.846,3.338.821,5.425,2.051,5.425,5.129,0,3.9-3.338,5.949-7.928,5.949a16.6,16.6,0,0,1-6.885-1.436l-.209-4.923Z" transform="translate(36.798 3.531)"/>
        </g>
        <path id="Path_27" data-name="Path 27" d="M21.073,30.978A10.6,10.6,0,0,1,10.432,20.516,10.559,10.559,0,0,1,21.073,10.259a11.172,11.172,0,0,1,8.137,3.693l6.259-8.411a21.167,21.167,0,0,0-29.209.615,20.315,20.315,0,0,0,0,29.335,21.085,21.085,0,0,0,23.785,4.1l-6.676-8.821A9.511,9.511,0,0,1,21.073,30.978Z" transform="translate(0 0.002)" fill="#a0cc3a"/>
        <path id="Path_28" data-name="Path 28" d="M54.176,3.062A21.447,21.447,0,0,0,26.01,8.6h0L13.7,26.448,20.376,36.3l4.173-5.539a20.754,20.754,0,0,0,7.511,7.8,21.264,21.264,0,0,0,29-6.975A20.238,20.238,0,0,0,54.176,3.062Zm-10.849,27.9A10.6,10.6,0,0,1,32.686,20.5,10.425,10.425,0,0,1,43.327,10.242,10.6,10.6,0,0,1,53.967,20.7,10.425,10.425,0,0,1,43.327,30.962Z" transform="translate(14.884 0.019)"/>
      </g>
    </g>
  </g>
</svg>
