<svg width="120" height="32" viewBox="0 0 120 32" fill="none" xmlns="http://www.w3.org/2000/svg">
<rect y="0.255127" width="119.824" height="31.4898" rx="10" fill="#8F8FF1"/>
<path d="M79.8626 16.5453V14.564L85.9682 23.2579H82.4192L78.0628 16.8186H79.4084L75.0353 23.2579H71.5536L77.676 14.5811V16.5112L71.9236 8.46631H75.5062L79.4925 14.3078H78.1133L82.0491 8.46631H85.5645L79.8626 16.5453Z" fill="white"/>
<path d="M64.6766 23.5488C63.1965 23.5488 61.8846 23.2243 60.7744 22.5752C59.6643 21.9262 58.7897 21.038 58.1674 19.8765C57.545 18.7492 57.2255 17.3999 57.2255 15.8627C57.2255 14.3254 57.545 12.9761 58.1674 11.8317C58.7897 10.6873 59.6643 9.78206 60.7744 9.133C61.8846 8.48395 63.1965 8.15942 64.6766 8.15942C66.1568 8.15942 67.4687 8.48395 68.5788 9.133C69.6889 9.78206 70.5636 10.6702 71.1859 11.8317C71.8082 12.9761 72.1278 14.3254 72.1278 15.8627C72.1278 17.3999 71.8082 18.7492 71.1859 19.8936C70.5636 21.038 69.6889 21.9433 68.5788 22.5923C67.4687 23.2243 66.1736 23.5488 64.6766 23.5488ZM64.6766 20.5768C65.6017 20.5768 66.4091 20.389 67.0819 20.0132C67.7547 19.6374 68.2761 19.0908 68.6461 18.3735C69.0161 17.6561 69.2012 16.8362 69.2012 15.8627C69.2012 14.8891 69.0161 14.0692 68.6461 13.3689C68.2761 12.6686 67.7547 12.1221 67.0819 11.7292C66.4091 11.3534 65.6017 11.1485 64.6766 11.1485C63.7515 11.1485 62.961 11.3364 62.2714 11.7292C61.5986 12.105 61.0604 12.6516 60.6903 13.3689C60.3203 14.0692 60.1353 14.9062 60.1353 15.8627C60.1353 16.8192 60.3203 17.6561 60.6903 18.3735C61.0604 19.0908 61.5818 19.6203 62.2714 20.0132C62.961 20.389 63.7684 20.5768 64.6766 20.5768Z" fill="white"/>
<path d="M56.1473 8.46631V11.3358H46.6609L48.1242 9.62777V23.2408H45.2312V8.46631H56.1473ZM46.6441 14.7348H55.8613V17.5872H46.6441V14.7348Z" fill="white"/>
<path d="M40.9412 21.0374L39.9321 21.2082V8.46631H42.741V23.2408H39.0742L30.8998 10.4989L31.8922 10.3281V23.2579H29.1001V8.46631H32.8509L40.9412 21.0374Z" fill="white"/>
<path d="M23.7186 8.46631H26.6116V23.2408H23.7186V8.46631Z" fill="white"/>
<path d="M21.8855 8.46606V11.3356H12.3992L13.8625 9.62753V23.2406H10.9695V8.46606H21.8855ZM12.3655 14.7346H21.5828V17.587H12.3655V14.7346Z" fill="white"/>
<rect x="90.8909" y="3.28442" width="25.4306" height="25.4306" rx="7" fill="white"/>
<path d="M99.8101 23.2356L106.864 10.2227L106.847 11.1607H97.7444V8.46606H109.467V11.1437L103.035 23.2185L99.8101 23.2356Z" fill="#FB75CC"/>
</svg>
