<?xml version="1.0" encoding="UTF-8"?>
<!DOCTYPE svg PUBLIC "-//W3C//DTD SVG 1.1//EN" "http://www.w3.org/Graphics/SVG/1.1/DTD/svg11.dtd">
<!-- Creator: CorelDRAW -->
<svg xmlns="http://www.w3.org/2000/svg" xml:space="preserve" width="78.8925mm" height="27.7863mm" style="shape-rendering:geometricPrecision; text-rendering:geometricPrecision; image-rendering:optimizeQuality; fill-rule:evenodd; clip-rule:evenodd"
viewBox="0 0 84.598 29.7958"
 xmlns:xlink="http://www.w3.org/1999/xlink">
 <defs>
  <style type="text/css">
   <![CDATA[
    .fil2 {fill:#29323D}
    .fil0 {fill:#29323D;fill-rule:nonzero}
    .fil1 {fill:#BEC41C;fill-rule:nonzero}
   ]]>
  </style>
 </defs>
 <g id="Слой_x0020_1">
  <metadata id="CorelCorpID_0Corel-Layer"/>
  <g id="_566299528">
   <path id="_566299744" class="fil0" d="M84.5981 9.31524c0,1.84503 -0.559644,3.29438 -1.6785,4.34783 -1.11907,1.05313 -2.6882,1.57996 -4.70781,1.57996 -2.01982,0 -3.58895,-0.526831 -4.70802,-1.57996 -1.11886,-1.05345 -1.67818,-2.50279 -1.67818,-4.34783 0,-1.84482 0.559322,-3.29374 1.67818,-4.34729 1.11907,-1.05345 2.6882,-1.58038 4.70802,-1.58038 2.01961,0 3.58873,0.526938 4.70781,1.58038 1.11886,1.05355 1.6785,2.50247 1.6785,4.34729zm-13.598 5.73144l-4.38836 0 0 -4.22483 -2.93129 0 0 4.22483 -4.38836 0 0 -11.4626 4.38836 0 0 3.96254 2.93129 0 0 -3.96254 4.38836 0 0 11.4626zm-12.7385 0l-4.38847 0 0 -3.94646c-0.622267,0.109377 -0.955223,0.168998 -0.99908,0.180257 -0.753197,0.119885 -1.37546,0.179935 -1.86648,0.179935 -1.28882,0 -2.29165,-0.24524 -3.01065,-0.737113 0.0737756,-0.456915 0.10809,-0.9282 0.10809,-1.40806 0,-1.65781 -0.412629,-3.20763 -1.43691,-4.46149l0 -1.26963 4.38847 0 0 3.65168c0,0.403836 0.158274,0.682317 0.474716,0.834908 0.196449,0.0982245 0.447694,0.147658 0.753197,0.147658 0.273227,0 0.537768,-0.0244489 0.794375,-0.0737756 0.256606,-0.0491122 0.521255,-0.122888 0.794267,-0.221005l0 -4.33946 4.38847 0 0 11.4626zm-34.7986 -0.262075c-0.589561,0.163636 -1.15703,0.281055 -1.70306,0.351935 -0.545704,0.0708803 -1.04776,0.106481 -1.50639,0.106481 -2.17241,0 -3.8699,-0.556641 -5.09255,-1.67025 -1.16808,-1.05902 -1.75217,-2.47802 -1.75217,-4.25754 0,-1.6592 0.518681,-3.01279 1.55561,-4.06088 1.23381,-1.24453 3.03477,-1.8668 5.40363,-1.8668 0.578838,0 1.14095,0.0381746 1.68665,0.114845 0.163743,0.0215536 0.535088,0.0871796 1.1135,0.196342l0.261968 0.049005 0 3.02941c-0.327486,-0.13093 -0.690252,-0.237519 -1.08862,-0.319122 -0.398796,-0.0821397 -0.805312,-0.122781 -1.22009,-0.122781 -0.917048,0 -1.6621,0.27001 -2.23504,0.810459 -0.573477,0.540235 -0.859893,1.23102 -0.859893,2.0714 0,0.753197 0.185726,1.38083 0.556856,1.8831 0.534659,0.720384 1.40817,1.08068 2.62011,1.08068 0.305504,0 0.611115,-0.0273442 0.916726,-0.0816035 0.305718,-0.0547955 0.753197,-0.175003 1.34276,-0.360407l0 3.04571zm19.0701 -5.46937c0,-0.873083 -0.0871796,-1.55015 -0.262075,-2.03054 -0.283521,-0.764135 -0.785582,-1.14599 -1.50618,-1.14599 -0.731322,0 -1.2337,0.376491 -1.50661,1.1298 -0.174574,0.480507 -0.262075,1.1625 -0.262075,2.04674 0,0.873512 0.0875013,1.55025 0.262075,2.03065 0.28395,0.764135 0.786118,1.14599 1.50661,1.14599 0.731322,0 1.23349,-0.376491 1.50618,-1.12969 0.174895,-0.480078 0.262075,-1.16261 0.262075,-2.04695zm4.61805 0c0,1.84503 -0.559751,3.29438 -1.67872,4.34783 -1.11886,1.05313 -2.6882,1.57996 -4.70759,1.57996 -2.01982,0 -3.58895,-0.526831 -4.70802,-1.57996 -0.574978,-0.541629 -1.00165,-1.18792 -1.28121,-1.93843 0.283629,-0.187227 0.551387,-0.405122 0.801774,-0.65819 0.913402,-0.927878 1.37203,-2.07172 1.37203,-3.37223 0,-1.03554 -0.27387,-1.97393 -0.834372,-2.77977 1.11511,-1.01742 2.66461,-1.52688 4.64979,-1.52688 2.01939,0 3.58873,0.526938 4.70759,1.58038 1.11897,1.05355 1.67872,2.50247 1.67872,4.34729zm-11.1557 -1.62103c0,1.05881 -0.365661,1.95945 -1.09698,2.70192 -0.884342,0.894958 -2.14518,1.34276 -3.78272,1.34276l-2.40714 0 0 3.30778 -4.38836 0 0 -11.4626 6.71379 0c1.62649,0 2.88186,0.420242 3.76599,1.26083 0.796948,0.753197 1.19542,1.70295 1.19542,2.84926zm-4.42117 -0.0327058c0,-0.414988 -0.125676,-0.737113 -0.376599,-0.966053 -0.338639,-0.305826 -0.889704,-0.458417 -1.65405,-0.458417l-0.949432 0 0 2.84894 0.966053 0c0.501953,0 0.900427,-0.0600499 1.1951,-0.179935 0.546025,-0.229155 0.818931,-0.644143 0.818931,-1.24453zm28.5408 10.3228l0 8.98904 2.36007 0 0 -7.16706 3.90442 0 0 -1.82198 -6.26449 0zm-8.52408 0l0 8.98904 4.35566 0c2.48167,0 3.60943,-1.31863 3.60943,-2.89816 0,-0.832764 -0.312367,-2.89794 -3.78272,-2.89794l-1.82251 0 0 -3.19294 -2.35985 0zm2.35985 4.75477l1.4753 0c1.31863,0 1.66553,0.815928 1.66553,1.33611 0,0.69422 -0.55514,1.33643 -1.66553,1.33643l-1.4753 0 0 -2.67254zm-12.0524 -4.75477l0 8.98904 2.36007 0 0 -3.85231 3.78293 0 0 3.85231 2.36028 0 0 -8.98904 -2.36028 0 0 3.40118 -3.78293 0 0 -3.40118 -2.36007 0zm-0.72403 5.2059l0 -0.537661c0,-0.798449 -0.0693791,-4.8071 -4.14709,-4.8071 -2.41218,0 -4.44284,1.73544 -4.44284,4.6336 0,3.17568 2.15225,4.63607 4.84195,4.63607 1.07607,0 2.18667,-0.211461 3.10619,-0.558357l0 -1.76986c-0.850135,0.381853 -1.77008,0.624734 -2.81109,0.624734 -1.77019,0 -2.60306,-1.07597 -2.67254,-2.22142l6.12541 0zm-6.12541 -1.61363c0.0170499,-1.18009 0.798235,-2.0996 1.83946,-2.0996 0.867614,0 1.89157,0.589883 1.85694,2.0996l-3.69639 0zm-10.6298 -3.59227l0 2.91532c0,1.73512 -0.104015,3.1064 -1.16261,4.3385l-1.00626 0 0 4.08093 2.16887 0 0 -2.3457 6.35124 0 0 2.3457 2.1693 0 0 -4.08093 -1.47519 0 0 -7.25381 -7.04536 0zm1.12787 7.25381c0.972165,-1.33643 0.954472,-2.77656 0.954472,-4.18237l0 -1.3359 2.60306 0 0 5.51827 -3.55753 0zm41.377 -7.25381l0 8.98904 2.5162 0 3.97391 -6.33398 0.052222 0 -0.0693791 1.68311 0 4.65087 2.35985 0 0 -8.98904 -2.63769 0 -3.86979 6.33387 -0.0347432 0 0.0693791 -1.61373 0 -4.72014 -2.35996 0zm13.0562 -8.66906c0,-0.873083 -0.0871796,-1.55015 -0.262075,-2.03054 -0.283736,-0.764135 -0.785796,-1.14599 -1.50639,-1.14599 -0.731322,0 -1.2337,0.376491 -1.50661,1.1298 -0.174466,0.480507 -0.261861,1.1625 -0.261861,2.04674 0,0.873512 0.0873941,1.55025 0.261861,2.03065 0.284165,0.764135 0.786118,1.14599 1.50661,1.14599 0.731429,0 1.23349,-0.376491 1.50639,-1.12969 0.174895,-0.480078 0.262075,-1.16261 0.262075,-2.04695z"/>
   <path id="_566300440" class="fil1" d="M4.69698 9.47802c-0.352472,-0.219611 -0.635671,-0.21618 -0.759631,-0.169212 -0.110234,0.0418205 -0.0515786,0.291778 0.303038,0.716524 1.06449,1.27531 2.41679,3.00518 3.52825,4.71285 1.18309,1.81758 2.09349,3.60986 2.09349,4.80099 0,1.19124 -0.9104,2.98341 -2.09349,4.8012 -1.11146,1.70745 -2.46376,3.43743 -3.52825,4.71274 -0.354616,0.424853 -0.413272,0.674811 -0.303038,0.716524 0.12396,0.0468604 0.40716,0.050399 0.759631,-0.169105 1.17837,-0.733788 2.96765,-2.22431 4.58663,-3.92705 1.95377,-2.05478 3.65929,-4.41882 3.74336,-6.13431 -0.0840699,-1.7155 -1.78959,-4.07932 -3.74336,-6.1341 -1.61899,-1.70274 -3.40826,-3.19337 -4.58663,-3.92705z"/>
   <path id="_566299768" class="fil2" d="M8.32999 0.195269c0.352579,-0.219504 0.635671,-0.216072 0.759631,-0.169212 0.110234,0.0418205 0.0516858,0.291778 -0.303038,0.716524 -1.06449,1.27531 -2.41669,3.00528 -3.52825,4.71274 -1.18309,1.8178 -2.09338,3.60996 -2.09338,4.8012 0,1.19113 0.910292,2.98341 2.09338,4.8011 1.11157,1.70756 2.46376,3.43743 3.52825,4.71285 0.354723,0.424746 0.413272,0.674704 0.303038,0.716417 -0.12396,0.0469676 -0.407053,0.050399 -0.759631,-0.169105 -1.17837,-0.733788 -2.96765,-2.22431 -4.58663,-3.92705 -1.95377,-2.05478 -3.65929,-4.41871 -3.74336,-6.13421 0.0840699,-1.7155 1.78959,-4.07943 3.74336,-6.13421 1.61899,-1.70274 3.40826,-3.19337 4.58663,-3.92705z"/>
  </g>
 </g>
</svg>
