<svg width="400" height="120" viewBox="0 0 400 120" fill="none" xmlns="http://www.w3.org/2000/svg">
<rect x="26" y="47.5508" width="106.182" height="25.9556" rx="12.9778" fill="url(#paint0_linear_203_2)"/>
<path d="M144.622 41.8896H167.984V46.7424H159.008V71.951H153.597V46.7424H144.622V41.8896Z" fill="#02113B"/>
<path d="M174.648 80.5399L178.127 71.6933L169.624 50.4786H174.691L180.489 66.0246L186.115 50.4786H191.139L179.501 80.5399H174.648Z" fill="#02113B"/>
<path d="M205.361 68.043C209.054 68.043 211.716 65.1227 211.716 61.1718C211.716 57.2209 209.054 54.3865 205.361 54.3865C201.667 54.3865 199.005 57.2209 199.005 61.1718C199.005 65.1227 201.667 68.043 205.361 68.043ZM206.52 72.5522C203.127 72.5522 200.594 71.0062 199.005 68.4724V80.5399H194.195V50.4786H199.005V53.9571C200.594 51.4234 203.127 49.8773 206.52 49.8773C212.532 49.8773 216.698 54.7301 216.698 61.2148C216.698 67.6994 212.532 72.5522 206.52 72.5522Z" fill="#02113B"/>
<path d="M231.029 68.2148C234.465 68.2148 236.956 65.6381 236.956 61.8589C236.956 58.0798 234.465 55.5461 231.029 55.5461C227.508 55.5461 225.017 58.0798 225.017 61.8589C225.017 65.6381 227.508 68.2148 231.029 68.2148ZM231.115 72.5522C224.158 72.5522 219.95 67.27 219.95 58.8528C219.95 48.2454 223.557 43.2209 232.704 42.4908L239.447 41.9755L239.704 46.5706L233.048 47.043C227.036 47.4724 224.545 49.7915 224.158 55.5461C225.79 52.7976 228.496 51.2945 231.845 51.2945C237.686 51.2945 241.766 55.6749 241.766 61.8589C241.766 68.1718 237.471 72.5522 231.115 72.5522Z" fill="#02113B"/>
<path d="M255.798 72.5522C249.184 72.5522 244.503 67.6994 244.503 61.2148C244.503 54.7301 249.184 49.8773 255.798 49.8773C262.411 49.8773 267.092 54.7301 267.092 61.2148C267.092 67.6994 262.411 72.5522 255.798 72.5522ZM255.798 68.043C259.491 68.043 262.154 65.1657 262.154 61.2148C262.154 57.2638 259.491 54.3865 255.798 54.3865C252.105 54.3865 249.442 57.2638 249.442 61.2148C249.442 65.1657 252.105 68.043 255.798 68.043Z" fill="#02113B"/>
<path d="M278.793 72.5522C274.37 72.5522 271.02 70.7914 269.217 66.8835L272.996 64.9939C274.027 67.3559 275.959 68.5583 278.708 68.5583C281.37 68.5583 283.26 67.4418 283.26 65.5092C283.26 63.9632 281.971 62.8467 279.695 62.8467H275.487V58.8957H279.738C281.671 58.8957 282.873 57.951 282.873 56.5338C282.873 54.8589 281.155 53.7853 278.708 53.7853C276.26 53.7853 274.542 54.8589 273.554 56.9203L269.99 54.816C271.708 51.5951 274.671 49.8773 278.879 49.8773C283.99 49.8773 287.425 52.4111 287.425 56.1902C287.425 58.4234 286.223 60.0123 283.818 61C286.481 61.7301 287.855 63.4479 287.855 65.8957C287.855 69.8896 284.204 72.5522 278.793 72.5522Z" fill="#02113B"/>
<path d="M304.866 62.589V62.2454L300.743 62.4172C296.621 62.589 295.032 63.8773 295.032 65.681C295.032 67.4418 296.535 68.5583 298.811 68.5583C302.246 68.5583 304.866 66.0675 304.866 62.589ZM309.504 58.5522V71.951H304.866V68.7301C303.406 71.178 300.915 72.5522 297.651 72.5522C293.013 72.5522 290.308 69.7608 290.308 65.9816C290.308 61.816 293.614 59.1105 300.013 58.8957L304.866 58.681V58.4663C304.866 55.7178 303.019 53.8712 300.013 53.8712C297.565 53.8712 295.719 55.0307 294.688 57.178L290.909 55.2884C292.455 51.8957 295.676 49.8773 300.142 49.8773C305.897 49.8773 309.504 53.227 309.504 58.5522Z" fill="#02113B"/>
<path d="M314.608 50.4786H319.418V64.9939L329.166 50.4786H334.062V71.951H329.252V57.4356L319.504 71.951H314.608V50.4786ZM324.314 46.6565C319.976 46.6565 317.056 44.1227 316.712 40H320.749C321.007 41.9326 322.424 43.0921 324.314 43.0921C326.246 43.0921 327.706 41.9326 327.964 40H332.001C331.657 44.1227 328.694 46.6565 324.314 46.6565Z" fill="#02113B"/>
<path d="M345.005 50.4786L351.146 63.4049L357.287 50.4786H362.999V71.951H358.533V56.6197L352.392 69.1166H349.772L343.631 56.6197V71.951H339.165V50.4786H345.005Z" fill="#02113B"/>
<defs>
<linearGradient id="paint0_linear_203_2" x1="132.182" y1="60.7645" x2="18.157" y2="60.7645" gradientUnits="userSpaceOnUse">
<stop offset="0.0416667" stop-color="#206AD4"/>
<stop offset="1" stop-color="#206AD4" stop-opacity="0"/>
</linearGradient>
</defs>
</svg>
