<svg width="114" height="46" viewBox="0 0 114 46" fill="none" xmlns="http://www.w3.org/2000/svg">
<g clip-path="url(#clip0_412_7)">
<path d="M114 0H0V46H114V0Z" fill="white"/>
<path fill-rule="evenodd" clip-rule="evenodd" d="M114 23.5317H112.416L111.542 20.3501C111.327 19.6683 110.896 19.3295 110.254 19.3295L108.151 19.3135V23.5277H106.687V13.3211C107.525 13.2334 108.714 13.1895 110.254 13.1895C111.487 13.1895 112.356 13.4008 112.867 13.8274C113.374 14.25 113.629 15.0275 113.629 16.1518C113.629 16.9692 113.481 17.5871 113.194 18.0018C112.903 18.4164 112.42 18.6676 111.75 18.7553V18.8311C112.412 19.0304 112.839 19.5208 113.039 20.3103L114 23.5317ZM58.595 18.2649V18.2051C59.1935 18.1453 59.6363 17.926 59.9076 17.5473C60.1829 17.1685 60.3226 16.6103 60.3226 15.8687C60.3226 14.8321 60.0752 14.1304 59.5765 13.7596C59.0778 13.3888 58.1881 13.2054 56.9034 13.2054C55.4352 13.2054 54.2981 13.2453 53.5002 13.3251V23.5317C54.3979 23.6115 55.6825 23.6513 57.3502 23.6513C58.5631 23.6513 59.4169 23.464 59.9036 23.0892C60.3944 22.7144 60.6377 22.0127 60.6377 20.988C60.6377 20.1388 60.4821 19.4929 60.1709 19.0424C59.8598 18.5919 59.3371 18.3327 58.595 18.2649ZM51.0864 22.3037L51.1622 23.444C50.2645 23.5237 48.8043 23.5636 46.7815 23.5636C46.1511 23.5636 45.6524 23.4001 45.2854 23.0692C44.9183 22.7383 44.7308 22.2918 44.7228 21.7296V15.1311C44.7308 14.569 44.9183 14.1224 45.2854 13.7915C45.6484 13.4606 46.1472 13.2971 46.7815 13.2971C48.8043 13.2971 50.2645 13.337 51.1622 13.4167L51.0864 14.569H47.0289C46.7336 14.569 46.5222 14.6407 46.3985 14.7843C46.2748 14.9278 46.215 15.171 46.215 15.5179V17.5592H50.5239V18.7593H46.215V21.3628C46.215 21.7097 46.2748 21.9529 46.3985 22.0964C46.5222 22.2399 46.7297 22.3117 47.0289 22.3117H51.0864V22.3037ZM42.7551 13.329H41.176L39.7118 21.1396C39.6838 21.2791 39.6479 21.4904 39.608 21.7775C39.589 21.9148 39.5726 22.0348 39.5586 22.1379C39.5433 22.25 39.5307 22.3427 39.5203 22.4154H39.1811C39.1093 21.9529 39.0375 21.5223 38.9577 21.1276L37.5055 13.8194C37.4775 13.6839 37.4097 13.5683 37.306 13.4726C37.2023 13.3809 37.0826 13.333 36.9429 13.333H35.359C35.0518 13.333 34.8643 13.4925 34.7965 13.8194L33.3322 21.1116C33.2325 21.5582 33.1567 21.9928 33.1088 22.4154H32.7697C32.6779 21.7137 32.6181 21.2791 32.5902 21.1116L31.1259 13.329H29.558L31.5129 23.1091C31.5808 23.3962 31.7683 23.5397 32.0755 23.5397H33.7352C33.8748 23.5397 34.0025 23.4959 34.1142 23.4121C34.2259 23.3284 34.2938 23.2208 34.3137 23.0932L35.7779 15.5937L36.0014 14.4414H36.3125C36.3524 14.6966 36.4203 15.0793 36.52 15.5937L38.0002 23.0932C38.072 23.3882 38.2635 23.5357 38.5787 23.5357H40.2225C40.5177 23.5357 40.7132 23.3922 40.801 23.1051L42.7551 13.329ZM54.9525 17.6749H57.0231C57.7333 17.6749 58.224 17.5632 58.4953 17.3439C58.7666 17.1207 58.9023 16.6901 58.9023 16.0482C58.9023 15.4182 58.7547 14.9956 58.4594 14.7843C58.1642 14.573 57.6216 14.4653 56.8316 14.4653H54.9525V17.6749ZM57.1269 22.3915L54.9525 22.3755V18.8151H57.0391C57.841 18.8271 58.3916 18.9627 58.6908 19.2298C58.9901 19.4929 59.1417 19.9953 59.1417 20.7369C59.1417 21.3987 58.998 21.8373 58.7188 22.0605C58.4355 22.2798 57.9049 22.3915 57.1269 22.3915ZM68.1703 18.2051V18.2649C68.9124 18.3327 69.435 18.5919 69.7462 19.0424C70.0574 19.4929 70.213 20.1388 70.213 20.988C70.213 22.0127 69.9697 22.7144 69.4789 23.0892C68.9922 23.464 68.1384 23.6514 66.9255 23.6514C65.2578 23.6514 63.9731 23.6115 63.0755 23.5317V13.3251C63.8734 13.2453 65.0105 13.2055 66.4787 13.2055C67.7634 13.2055 68.6531 13.3889 69.1518 13.7596C69.6505 14.1304 69.8979 14.8321 69.8979 15.8688C69.8979 16.6103 69.7582 17.1685 69.4829 17.5473C69.2116 17.926 68.7728 18.1453 68.1703 18.2051ZM66.5984 17.6749H64.5278V14.4653H66.4069C67.1969 14.4653 67.7395 14.573 68.0347 14.7843C68.33 14.9956 68.4776 15.4182 68.4776 16.0482C68.4776 16.6901 68.3419 17.1207 68.0706 17.3439C67.7993 17.5632 67.3086 17.6749 66.5984 17.6749ZM64.5278 22.3755L66.7022 22.3915C67.4801 22.3915 68.0108 22.2798 68.294 22.0605C68.5733 21.8373 68.717 21.3987 68.717 20.7369C68.717 19.9953 68.5653 19.4929 68.2661 19.2298C67.9669 18.9627 67.4163 18.8271 66.6144 18.8151H64.5278V22.3755ZM74.0033 20.4538H78.0728L79.0223 23.5317H80.5464L77.3347 13.7238C77.2748 13.4566 77.0953 13.3251 76.8 13.3251H75.2919C75.0087 13.3251 74.8251 13.4566 74.7453 13.7238L71.5496 23.5317H73.0577L74.0033 20.4538ZM77.6897 19.166L76.4888 15.2907C76.4609 15.2029 76.417 15.0634 76.3612 14.876L76.3303 14.7719C76.2901 14.6362 76.2592 14.532 76.2335 14.4614H75.8345L75.5991 15.2907L74.3982 19.166H77.6897ZM90.2853 22.9536V13.3251H88.821V20.4976C88.821 20.9601 88.849 21.4904 88.8968 22.0805H88.6734C88.6016 21.921 88.5258 21.7535 88.442 21.5701C88.3582 21.3867 88.2665 21.1954 88.1667 20.992C88.067 20.7927 87.9992 20.6452 87.9593 20.5575L84.8672 13.7836C84.7196 13.4766 84.5042 13.3251 84.2169 13.3251H82.8564C82.4814 13.3251 82.2939 13.5204 82.2939 13.9032V23.5317H83.7741V16.1199C83.7741 15.5697 83.7461 15.0953 83.6983 14.7006H83.9057C83.9536 14.876 84.1571 15.3505 84.5122 16.1199L87.6959 23.0732C87.8276 23.3802 88.0391 23.5317 88.3343 23.5317H89.7387C90.1017 23.5317 90.2853 23.3364 90.2853 22.9536ZM95.6753 18.8111H94.5223C94.5901 19.2258 94.626 19.5766 94.626 19.8597V23.5277H93.1459V13.3211H94.626V16.4588C94.626 16.8814 94.5901 17.2682 94.5223 17.611H95.6753L98.6796 13.3211H100.291L97.4029 17.4914C97.2433 17.7187 97.0358 17.9539 96.7805 18.2011V18.245C97.0558 18.4802 97.2952 18.7394 97.4906 19.0145L100.479 23.5277H98.8352L95.6753 18.8111ZM102.35 23.5317H103.83V13.3251H102.35V23.5317ZM110.222 18.0576H108.151V14.4813C108.526 14.4693 109.216 14.4653 110.222 14.4653C110.952 14.4653 111.455 14.5889 111.726 14.8361C111.997 15.0793 112.133 15.5498 112.133 16.2396C112.133 16.9413 111.997 17.4157 111.726 17.6669C111.455 17.9181 110.952 18.0496 110.222 18.0576Z" fill="black"/>
<path d="M30.0948 25.8548C30.011 25.7543 30.0824 25.6016 30.2133 25.6016H113.718C113.84 25.6016 113.913 25.7366 113.847 25.8393L111.212 29.9455C111.179 29.9962 111.179 30.0614 111.212 30.1122L113.847 34.2183C113.913 34.321 113.84 34.456 113.718 34.456H30.2133C30.0824 34.456 30.011 34.3033 30.0948 34.2028L33.4953 30.1277C33.5431 30.0704 33.5431 29.9872 33.4953 29.9299L30.0948 25.8548Z" fill="#F8333A"/>
<path d="M51.2564 29.8584C51.2564 30.2041 51.2291 30.5127 51.1744 30.7842C51.1217 31.0557 51.0357 31.2861 50.9166 31.4756C50.7994 31.665 50.6451 31.8096 50.4537 31.9092C50.2623 32.0088 50.0299 32.0586 49.7564 32.0586C49.4127 32.0586 49.1305 31.9717 48.9098 31.7979C48.689 31.6221 48.526 31.3701 48.4205 31.042C48.315 30.7119 48.2623 30.3174 48.2623 29.8584C48.2623 29.3955 48.3101 29 48.4058 28.6719C48.5035 28.3418 48.6617 28.0889 48.8805 27.9131C49.0992 27.7373 49.3912 27.6494 49.7564 27.6494C50.0982 27.6494 50.3795 27.7373 50.6002 27.9131C50.8228 28.0869 50.9879 28.3389 51.0953 28.6689C51.2027 28.9971 51.2564 29.3936 51.2564 29.8584ZM49.1617 29.8584C49.1617 30.1846 49.1793 30.457 49.2144 30.6758C49.2515 30.8926 49.3131 31.0557 49.399 31.165C49.4849 31.2744 49.6041 31.3291 49.7564 31.3291C49.9068 31.3291 50.025 31.2754 50.1109 31.168C50.1988 31.0586 50.2613 30.8955 50.2984 30.6787C50.3355 30.46 50.3541 30.1865 50.3541 29.8584C50.3541 29.5322 50.3355 29.2598 50.2984 29.041C50.2613 28.8223 50.1988 28.6582 50.1109 28.5488C50.025 28.4375 49.9068 28.3818 49.7564 28.3818C49.6041 28.3818 49.4849 28.4375 49.399 28.5488C49.3131 28.6582 49.2515 28.8223 49.2144 29.041C49.1793 29.2598 49.1617 29.5322 49.1617 29.8584ZM52.7344 27.6553C53.0703 27.6553 53.3252 27.7725 53.499 28.0068C53.6729 28.2412 53.7598 28.5703 53.7598 28.9941C53.7598 29.418 53.6778 29.749 53.5137 29.9873C53.3496 30.2256 53.0899 30.3447 52.7344 30.3447C52.4043 30.3447 52.1533 30.2256 51.9815 29.9873C51.8096 29.749 51.7237 29.418 51.7237 28.9941C51.7237 28.5703 51.8037 28.2412 51.9639 28.0068C52.126 27.7725 52.3828 27.6553 52.7344 27.6553ZM52.7403 28.2676C52.6446 28.2676 52.5742 28.3281 52.5293 28.4492C52.4844 28.5703 52.4619 28.7539 52.4619 29C52.4619 29.2461 52.4844 29.4307 52.5293 29.5537C52.5742 29.6768 52.6446 29.7383 52.7403 29.7383C52.836 29.7383 52.9063 29.6777 52.9512 29.5566C52.9981 29.4336 53.0215 29.248 53.0215 29C53.0215 28.7539 52.9981 28.5703 52.9512 28.4492C52.9063 28.3281 52.836 28.2676 52.7403 28.2676ZM55.7754 27.7168L53.3994 32H52.6963L55.0723 27.7168H55.7754ZM55.7344 29.3662C56.0703 29.3662 56.3252 29.4834 56.499 29.7178C56.6729 29.9521 56.7598 30.2812 56.7598 30.7051C56.7598 31.127 56.6778 31.457 56.5137 31.6953C56.3496 31.9336 56.0899 32.0527 55.7344 32.0527C55.4043 32.0527 55.1533 31.9336 54.9815 31.6953C54.8096 31.457 54.7237 31.127 54.7237 30.7051C54.7237 30.2812 54.8037 29.9521 54.9639 29.7178C55.126 29.4834 55.3828 29.3662 55.7344 29.3662ZM55.7403 29.9785C55.6446 29.9785 55.5742 30.0391 55.5293 30.1602C55.4844 30.2812 55.4619 30.4648 55.4619 30.7109C55.4619 30.957 55.4844 31.1416 55.5293 31.2646C55.5742 31.3877 55.6446 31.4492 55.7403 31.4492C55.836 31.4492 55.9063 31.3887 55.9512 31.2676C55.9981 31.1445 56.0215 30.959 56.0215 30.7109C56.0215 30.4648 55.9981 30.2812 55.9512 30.1602C55.9063 30.0391 55.836 29.9785 55.7403 29.9785ZM62.5194 27.7168V31.2441H63.0907V33.248H62.2148V32H59.5312V33.248H58.6552V31.2441H58.9862C59.0976 31.0215 59.205 30.7861 59.3085 30.5381C59.412 30.29 59.5087 30.0234 59.5985 29.7383C59.6884 29.4531 59.7694 29.1436 59.8417 28.8096C59.914 28.4756 59.9745 28.1113 60.0233 27.7168H62.5194ZM61.6142 28.4727H60.744C60.7148 28.6797 60.6747 28.9004 60.6239 29.1348C60.5732 29.3691 60.5126 29.6084 60.4423 29.8525C60.3739 30.0947 60.2968 30.334 60.2108 30.5703C60.1269 30.8066 60.037 31.0312 59.9413 31.2441H61.6142V28.4727ZM67.7005 29.8525C67.7005 30.1826 67.6595 30.4834 67.5775 30.7549C67.4955 31.0244 67.3705 31.2568 67.2025 31.4521C67.0365 31.6475 66.8255 31.7979 66.5697 31.9033C66.3138 32.0068 66.0111 32.0586 65.6615 32.0586C65.3119 32.0586 65.0091 32.0068 64.7533 31.9033C64.4974 31.7979 64.2855 31.6475 64.1175 31.4521C63.9515 31.2568 63.8275 31.0234 63.7455 30.752C63.6634 30.4805 63.6224 30.1787 63.6224 29.8467C63.6224 29.4033 63.6947 29.0176 63.8392 28.6895C63.9857 28.3594 64.2103 28.1035 64.513 27.9219C64.8158 27.7402 65.2005 27.6494 65.6673 27.6494C66.1322 27.6494 66.514 27.7402 66.8128 27.9219C67.1136 28.1035 67.3363 28.3594 67.4808 28.6895C67.6273 29.0195 67.7005 29.4072 67.7005 29.8525ZM64.5746 29.8525C64.5746 30.1514 64.6117 30.4092 64.6859 30.626C64.7621 30.8408 64.8802 31.0068 65.0404 31.124C65.2005 31.2393 65.4076 31.2969 65.6615 31.2969C65.9193 31.2969 66.1283 31.2393 66.2884 31.124C66.4486 31.0068 66.5648 30.8408 66.6371 30.626C66.7113 30.4092 66.7484 30.1514 66.7484 29.8525C66.7484 29.4033 66.6644 29.0498 66.4964 28.792C66.3285 28.5342 66.0521 28.4053 65.6673 28.4053C65.4115 28.4053 65.2025 28.4639 65.0404 28.5811C64.8802 28.6963 64.7621 28.8623 64.6859 29.0791C64.6117 29.2939 64.5746 29.5518 64.5746 29.8525ZM72.7951 28.6748C72.7951 28.8721 72.7541 29.043 72.6721 29.1875C72.5901 29.332 72.4787 29.4502 72.3381 29.542C72.1994 29.6338 72.0432 29.7012 71.8694 29.7441V29.7617C72.2131 29.8047 72.4739 29.9102 72.6516 30.0781C72.8313 30.2461 72.9211 30.4707 72.9211 30.752C72.9211 31.002 72.8596 31.2256 72.7365 31.4229C72.6155 31.6201 72.428 31.7754 72.174 31.8887C71.9201 32.002 71.593 32.0586 71.1926 32.0586C70.9563 32.0586 70.7356 32.0391 70.5305 32C70.3274 31.9629 70.136 31.9053 69.9563 31.8271V31.0566C70.1399 31.1504 70.3323 31.2217 70.5334 31.2705C70.7346 31.3174 70.9221 31.3408 71.0959 31.3408C71.4201 31.3408 71.6467 31.2852 71.7756 31.1738C71.9065 31.0605 71.9719 30.9023 71.9719 30.6992C71.9719 30.5801 71.9416 30.4795 71.8811 30.3975C71.8205 30.3154 71.7151 30.2529 71.5647 30.21C71.4162 30.167 71.2082 30.1455 70.9407 30.1455H70.6155V29.4512H70.9465C71.2102 29.4512 71.4104 29.4268 71.5471 29.3779C71.6858 29.3271 71.7795 29.2588 71.8283 29.1729C71.8791 29.085 71.9045 28.9854 71.9045 28.874C71.9045 28.7217 71.8576 28.6025 71.7639 28.5166C71.6701 28.4307 71.5139 28.3877 71.2951 28.3877C71.1584 28.3877 71.0334 28.4053 70.9201 28.4404C70.8088 28.4736 70.7082 28.5146 70.6184 28.5635C70.5285 28.6104 70.4494 28.6562 70.3811 28.7012L69.9621 28.0771C70.1301 27.9561 70.3264 27.8555 70.551 27.7754C70.7776 27.6953 71.0471 27.6553 71.3596 27.6553C71.801 27.6553 72.1506 27.7441 72.4084 27.9219C72.6662 28.0996 72.7951 28.3506 72.7951 28.6748ZM76.4323 29.8584C76.4323 30.2041 76.4049 30.5127 76.3503 30.7842C76.2975 31.0557 76.2116 31.2861 76.0924 31.4756C75.9753 31.665 75.821 31.8096 75.6296 31.9092C75.4381 32.0088 75.2057 32.0586 74.9323 32.0586C74.5885 32.0586 74.3063 31.9717 74.0856 31.7979C73.8649 31.6221 73.7018 31.3701 73.5964 31.042C73.4909 30.7119 73.4381 30.3174 73.4381 29.8584C73.4381 29.3955 73.486 29 73.5817 28.6719C73.6794 28.3418 73.8376 28.0889 74.0563 27.9131C74.2751 27.7373 74.5671 27.6494 74.9323 27.6494C75.2741 27.6494 75.5553 27.7373 75.776 27.9131C75.9987 28.0869 76.1637 28.3389 76.2712 28.6689C76.3786 28.9971 76.4323 29.3936 76.4323 29.8584ZM74.3376 29.8584C74.3376 30.1846 74.3551 30.457 74.3903 30.6758C74.4274 30.8926 74.4889 31.0557 74.5749 31.165C74.6608 31.2744 74.7799 31.3291 74.9323 31.3291C75.0827 31.3291 75.2008 31.2754 75.2868 31.168C75.3747 31.0586 75.4372 30.8955 75.4743 30.6787C75.5114 30.46 75.5299 30.1865 75.5299 29.8584C75.5299 29.5322 75.5114 29.2598 75.4743 29.041C75.4372 28.8223 75.3747 28.6582 75.2868 28.5488C75.2008 28.4375 75.0827 28.3818 74.9323 28.3818C74.7799 28.3818 74.6608 28.4375 74.5749 28.5488C74.4889 28.6582 74.4274 28.8223 74.3903 29.041C74.3551 29.2598 74.3376 29.5322 74.3376 29.8584ZM82.2271 27.7168V31.2441H82.7984V33.248H81.9224V32H79.2388V33.248H78.3628V31.2441H78.6939C78.8052 31.0215 78.9126 30.7861 79.0162 30.5381C79.1197 30.29 79.2164 30.0234 79.3062 29.7383C79.396 29.4531 79.4771 29.1436 79.5494 28.8096C79.6216 28.4756 79.6822 28.1113 79.731 27.7168H82.2271ZM81.3218 28.4727H80.4517C80.4224 28.6797 80.3824 28.9004 80.3316 29.1348C80.2808 29.3691 80.2203 29.6084 80.1499 29.8525C80.0816 30.0947 80.0044 30.334 79.9185 30.5703C79.8345 30.8066 79.7447 31.0312 79.649 31.2441H81.3218V28.4727ZM87.0303 32H86.125V30.1514H84.4287V32H83.5205V27.7168H84.4287V29.3955H86.125V27.7168H87.0303V32ZM90.641 32H88.1742V27.7168H90.641V28.4609H89.0824V29.4014H90.5326V30.1455H89.0824V31.25H90.641V32ZM91.5975 27.7168H92.4149V29.7852C92.4149 29.8867 92.413 29.999 92.409 30.1221C92.4071 30.2451 92.4032 30.3662 92.3973 30.4854C92.3934 30.6025 92.3895 30.7051 92.3856 30.793C92.3817 30.8809 92.3778 30.9395 92.3739 30.9688H92.3915L94.369 27.7168H95.4559V32H94.6473V29.9434C94.6473 29.834 94.6493 29.7148 94.6532 29.5859C94.6571 29.457 94.662 29.332 94.6678 29.2109C94.6757 29.0898 94.6825 28.9854 94.6883 28.8975C94.6942 28.8076 94.6981 28.748 94.7001 28.7188H94.6766L92.6903 32H91.5975V27.7168ZM95.0487 26.3076C95.0272 26.5146 94.9686 26.6973 94.8729 26.8555C94.7772 27.0137 94.6278 27.1367 94.4247 27.2246C94.2215 27.3125 93.9481 27.3564 93.6044 27.3564C93.2508 27.3564 92.9755 27.3145 92.7782 27.2305C92.5809 27.1445 92.4403 27.0234 92.3563 26.8672C92.2723 26.709 92.2215 26.5225 92.204 26.3076H93.0038C93.0214 26.5283 93.077 26.6748 93.1708 26.7471C93.2645 26.8174 93.4149 26.8525 93.6219 26.8525C93.7938 26.8525 93.9344 26.8135 94.0438 26.7354C94.1532 26.6572 94.2186 26.5146 94.2401 26.3076H95.0487Z" fill="white"/>
<path d="M12.5 11C19.3948 11 25 16.5924 25 23.5C25 30.3948 19.4076 36 12.5 36C5.60521 36 0 30.4076 0 23.5C0 16.5924 5.59244 11 12.5 11Z" fill="#FFDE52"/>
<path d="M7.747 25.8907C7.69605 25.8397 7.65784 25.776 7.61963 25.7123C7.59416 25.6487 7.58142 25.5722 7.58142 25.4958C7.58142 25.4194 7.59416 25.343 7.61963 25.2793C7.6451 25.2156 7.68331 25.1519 7.747 25.101L14.9176 17.9049C14.9686 17.8539 15.0323 17.8157 15.0959 17.7775C15.1596 17.7521 15.236 17.7393 15.3125 17.7393C15.3889 17.7393 15.4653 17.7521 15.529 17.7775C15.5927 17.803 15.6563 17.8412 15.7073 17.9049L19.9867 22.1971C20.0377 22.248 20.0759 22.3117 20.1141 22.3754C20.1396 22.4391 20.1523 22.5155 20.1523 22.5919C20.1523 22.6683 20.1396 22.7447 20.1141 22.8084C20.0886 22.8721 20.0504 22.9358 19.9867 22.9867L12.8161 30.1828C12.7652 30.2338 12.7015 30.272 12.6378 30.2975C12.5741 30.3229 12.4977 30.3357 12.4213 30.3357C12.3449 30.3357 12.2812 30.3229 12.2048 30.2975C12.1411 30.272 12.0774 30.2338 12.0264 30.1828L7.747 25.8907Z" fill="#F8DA5E"/>
<path d="M7.747 25.8907C7.69605 25.8397 7.65784 25.776 7.61963 25.7123C7.59416 25.6487 7.58142 25.5722 7.58142 25.4958C7.58142 25.4194 7.59416 25.343 7.61963 25.2793C7.6451 25.2156 7.68331 25.1519 7.747 25.101L14.9176 17.9049C14.9686 17.8539 15.0323 17.8157 15.0959 17.7775C15.1596 17.7521 15.236 17.7393 15.3125 17.7393C15.3889 17.7393 15.4653 17.7521 15.529 17.7775C15.5927 17.803 15.6563 17.8412 15.7073 17.9049L19.9867 22.1971C20.0377 22.248 20.0759 22.3117 20.1141 22.3754C20.1396 22.4391 20.1523 22.5155 20.1523 22.5919C20.1523 22.6683 20.1396 22.7447 20.1141 22.8084C20.0886 22.8721 20.0504 22.9358 19.9867 22.9867L12.8161 30.1828C12.7652 30.2338 12.7015 30.272 12.6378 30.2975C12.5741 30.3229 12.4977 30.3357 12.4213 30.3357C12.3449 30.3357 12.2812 30.3229 12.2048 30.2975C12.1411 30.272 12.0774 30.2338 12.0264 30.1828L7.747 25.8907Z" fill="white"/>
<path d="M7.747 25.8907C7.69605 25.8397 7.65784 25.776 7.61963 25.7123C7.59416 25.6487 7.58142 25.5722 7.58142 25.4958C7.58142 25.4194 7.59416 25.343 7.61963 25.2793C7.6451 25.2156 7.68331 25.1519 7.747 25.101L14.9176 17.9049C14.9686 17.8539 15.0323 17.8157 15.0959 17.7775C15.1596 17.7521 15.236 17.7393 15.3125 17.7393C15.3889 17.7393 15.4653 17.7521 15.529 17.7775C15.5927 17.803 15.6563 17.8412 15.7073 17.9049L19.9867 22.1971C20.0377 22.248 20.0759 22.3117 20.1141 22.3754C20.1396 22.4391 20.1523 22.5155 20.1523 22.5919C20.1523 22.6683 20.1396 22.7447 20.1141 22.8084C20.0886 22.8721 20.0504 22.9358 19.9867 22.9867L12.8161 30.1828C12.7652 30.2338 12.7015 30.272 12.6378 30.2975C12.5741 30.3229 12.4977 30.3357 12.4213 30.3357C12.3449 30.3357 12.2812 30.3229 12.2048 30.2975C12.1411 30.272 12.0774 30.2338 12.0264 30.1828L7.747 25.8907Z" fill="#F8DA5E"/>
<path d="M7.747 25.8907C7.69605 25.8397 7.65784 25.776 7.61963 25.7123C7.59416 25.6487 7.58142 25.5722 7.58142 25.4958C7.58142 25.4194 7.59416 25.343 7.61963 25.2793C7.6451 25.2156 7.68331 25.1519 7.747 25.101L14.9176 17.9049C14.9686 17.8539 15.0323 17.8157 15.0959 17.7775C15.1596 17.7521 15.236 17.7393 15.3125 17.7393C15.3889 17.7393 15.4653 17.7521 15.529 17.7775C15.5927 17.803 15.6563 17.8412 15.7073 17.9049L19.9867 22.1971C20.0377 22.248 20.0759 22.3117 20.1141 22.3754C20.1396 22.4391 20.1523 22.5155 20.1523 22.5919C20.1523 22.6683 20.1396 22.7447 20.1141 22.8084C20.0886 22.8721 20.0504 22.9358 19.9867 22.9867L12.8161 30.1828C12.7652 30.2338 12.7015 30.272 12.6378 30.2975C12.5741 30.3229 12.4977 30.3357 12.4213 30.3357C12.3449 30.3357 12.2812 30.3229 12.2048 30.2975C12.1411 30.272 12.0774 30.2338 12.0264 30.1828L7.747 25.8907Z" fill="white"/>
<path fill-rule="evenodd" clip-rule="evenodd" d="M15.2236 18.0478C15.1714 18.0796 15.146 18.0972 15.1281 18.115L7.94601 25.3226L7.93293 25.3331C7.92077 25.3428 7.90859 25.358 7.89597 25.3895C7.88715 25.4116 7.87905 25.4493 7.87905 25.4955C7.87905 25.5314 7.88392 25.5621 7.89023 25.5844C7.92205 25.6366 7.93962 25.6621 7.95746 25.6799L12.2369 29.9721C12.2528 29.9879 12.2774 30.0047 12.308 30.0178C12.3563 30.0333 12.3862 30.0378 12.4213 30.0378C12.4675 30.0378 12.5052 30.0297 12.5273 30.0209C12.5612 30.0073 12.5885 29.9892 12.6056 29.9722L19.7878 22.7645L19.8008 22.754C19.813 22.7443 19.8252 22.7292 19.8378 22.6976C19.8466 22.6755 19.8547 22.6378 19.8547 22.5916C19.8547 22.5558 19.8498 22.525 19.8435 22.5028C19.8117 22.4505 19.7941 22.4251 19.7763 22.4072L15.4851 18.1032L15.4749 18.0905C15.4652 18.0784 15.45 18.0662 15.4185 18.0536C15.3964 18.0447 15.3587 18.0366 15.3125 18.0366C15.2766 18.0366 15.2459 18.0415 15.2236 18.0478ZM14.9854 17.5009C15.0907 17.4588 15.2058 17.4414 15.3125 17.4414C15.4191 17.4414 15.5342 17.4588 15.6395 17.5009C15.7313 17.5376 15.8381 17.5981 15.9279 17.7043L20.1972 21.9863C20.1971 21.9863 20.1973 21.9864 20.1972 21.9863C20.2745 22.0637 20.3293 22.1552 20.3641 22.2133C20.3659 22.2163 20.3677 22.2192 20.3693 22.222L20.3816 22.2424L20.3905 22.2646C20.4326 22.3699 20.4499 22.485 20.4499 22.5916C20.4499 22.6983 20.4326 22.8134 20.3905 22.9187C20.3538 23.0103 20.2934 23.117 20.1874 23.2067L13.0266 30.393C12.9418 30.4778 12.8417 30.5362 12.7483 30.5735C12.643 30.6156 12.5279 30.633 12.4213 30.633C12.3057 30.633 12.2098 30.6126 12.1107 30.5795L12.1024 30.5768L12.0942 30.5735C12.0009 30.5362 11.9008 30.4778 11.816 30.393L7.53656 26.1008C7.45914 26.0234 7.40446 25.932 7.36961 25.8738C7.36784 25.8709 7.36611 25.868 7.36444 25.8652L7.35217 25.8447L7.34331 25.8226C7.30119 25.7173 7.28381 25.6022 7.28381 25.4955C7.28381 25.3889 7.30119 25.2738 7.34331 25.1685C7.37997 25.0768 7.44034 24.9702 7.54633 24.8804L14.7072 17.6942C14.7846 17.6167 14.876 17.5621 14.9342 17.5272C14.9372 17.5254 14.94 17.5237 14.9428 17.522L14.9633 17.5098L14.9854 17.5009Z" fill="#030608"/>
<path d="M12.7225 30.2417C12.6727 30.2914 12.6105 30.3287 12.5482 30.3659C12.486 30.3908 12.4113 30.4032 12.3366 30.4032C12.2619 30.4032 12.1996 30.3908 12.1249 30.3659C12.0626 30.3411 12.0004 30.3038 11.9506 30.2417L4.94067 23.2211C4.84106 23.1217 4.77881 22.985 4.77881 22.8359C4.77881 22.6868 4.84106 22.5501 4.94067 22.4507L9.13666 18.2632C9.18646 18.2135 9.24872 18.1762 9.31097 18.1389C9.37323 18.1141 9.44793 18.1016 9.52264 18.1016C9.59735 18.1016 9.6596 18.1141 9.73431 18.1389C9.79656 18.1638 9.85882 18.201 9.90862 18.2632L16.9185 25.2838C17.0181 25.3832 17.0804 25.5199 17.0804 25.669C17.0804 25.8181 17.0181 25.9548 16.9185 26.0542L12.7225 30.2417Z" fill="#F8DA5E"/>
<path d="M12.7225 30.2417C12.6727 30.2914 12.6105 30.3287 12.5482 30.3659C12.486 30.3908 12.4113 30.4032 12.3366 30.4032C12.2619 30.4032 12.1996 30.3908 12.1249 30.3659C12.0626 30.3411 12.0004 30.3038 11.9506 30.2417L4.94067 23.2211C4.84106 23.1217 4.77881 22.985 4.77881 22.8359C4.77881 22.6868 4.84106 22.5501 4.94067 22.4507L9.13666 18.2632C9.18646 18.2135 9.24872 18.1762 9.31097 18.1389C9.37323 18.1141 9.44793 18.1016 9.52264 18.1016C9.59735 18.1016 9.6596 18.1141 9.73431 18.1389C9.79656 18.1638 9.85882 18.201 9.90862 18.2632L16.9185 25.2838C17.0181 25.3832 17.0804 25.5199 17.0804 25.669C17.0804 25.8181 17.0181 25.9548 16.9185 26.0542L12.7225 30.2417Z" fill="white"/>
<path fill-rule="evenodd" clip-rule="evenodd" d="M9.43828 18.4104C9.38775 18.4411 9.36365 18.4578 9.34691 18.4745L5.15092 22.662C5.10342 22.7094 5.07644 22.7718 5.07644 22.8366C5.07644 22.9014 5.10342 22.9637 5.15092 23.0111L12.1727 30.0436L12.1828 30.0562C12.1906 30.066 12.2028 30.0763 12.2281 30.0872C12.2746 30.1021 12.3031 30.1063 12.3366 30.1063C12.3707 30.1063 12.3999 30.1017 12.421 30.0959C12.4715 30.0651 12.4956 30.0484 12.5123 30.0317L16.7083 25.8442C16.7558 25.7968 16.7828 25.7345 16.7828 25.6697C16.7828 25.6049 16.7558 25.5425 16.7083 25.4951L9.68656 18.4627L9.67641 18.45C9.66859 18.4403 9.65641 18.43 9.63118 18.419C9.58467 18.4041 9.55611 18.4 9.52265 18.4C9.48852 18.4 9.45936 18.4045 9.43828 18.4104ZM9.20064 17.8632C9.30446 17.8218 9.41779 17.8047 9.52265 17.8047C9.63645 17.8047 9.7309 17.8248 9.82826 17.8572L9.83655 17.86L9.84466 17.8632C9.93495 17.8993 10.0403 17.9587 10.129 18.0634L17.1288 25.0738C17.1287 25.0738 17.1288 25.0739 17.1288 25.0738C17.2804 25.2252 17.378 25.4364 17.378 25.6697C17.378 25.9031 17.2805 26.1141 17.1288 26.2655L12.9328 30.4531C12.8565 30.5292 12.7665 30.5829 12.7097 30.6169C12.7067 30.6186 12.7039 30.6203 12.7011 30.622L12.6807 30.6342L12.6586 30.6431C12.5548 30.6845 12.4414 30.7015 12.3366 30.7015C12.2228 30.7015 12.1283 30.6814 12.031 30.6491L12.0227 30.6463L12.0146 30.6431C11.9243 30.607 11.8189 30.5475 11.7302 30.4429L4.73045 23.4324C4.73039 23.4324 4.73051 23.4325 4.73045 23.4324C4.57883 23.281 4.4812 23.0699 4.4812 22.8366C4.4812 22.6032 4.57873 22.3921 4.73045 22.2407L8.92643 18.0532C9.00274 17.9771 9.09268 17.9233 9.14954 17.8894C9.15248 17.8876 9.15533 17.8859 9.15809 17.8843L9.17852 17.872L9.20064 17.8632Z" fill="#030608"/>
<path d="M13.9057 27.6257C14.1248 27.6257 14.3025 27.448 14.3025 27.2289C14.3025 27.0097 14.1248 26.832 13.9057 26.832C13.6865 26.832 13.5089 27.0097 13.5089 27.2289C13.5089 27.448 13.6865 27.6257 13.9057 27.6257Z" fill="black"/>
<path d="M17.3835 19.4827L16.2611 18.3604L13.1745 21.4469L14.2969 22.5693L17.3835 19.4827Z" fill="black"/>
</g>
<defs>
<clipPath id="clip0_412_7">
<rect width="114" height="46" fill="white"/>
</clipPath>
</defs>
</svg>
