<svg viewBox="0 0 11 11" xmlns="http://www.w3.org/2000/svg">
                    <path d="M2.70708 0.292919C2.51848 0.110761 2.26588 0.00996641 2.00368 0.0122448C1.74148 0.0145233 1.49067 0.119693 1.30526 0.305101C1.11985 0.490509 1.01469 0.741322 1.01241 1.00352C1.01013 1.26572 1.11092 1.51832 1.29308 1.70692L4.58608 4.99992L1.29308 8.29292C1.19757 8.38517 1.12139 8.49551 1.06898 8.61751C1.01657 8.73952 0.988985 8.87074 0.987831 9.00352C0.986677 9.1363 1.01198 9.26798 1.06226 9.39087C1.11254 9.51377 1.18679 9.62542 1.28069 9.71931C1.37458 9.81321 1.48623 9.88746 1.60913 9.93774C1.73202 9.98802 1.8637 10.0133 1.99648 10.0122C2.12926 10.011 2.26048 9.98343 2.38249 9.93102C2.50449 9.87861 2.61483 9.80243 2.70708 9.70692L6.00008 6.41392L9.29308 9.70692C9.48168 9.88908 9.73429 9.98987 9.99648 9.98759C10.2587 9.98532 10.5095 9.88015 10.6949 9.69474C10.8803 9.50933 10.9855 9.25852 10.9878 8.99632C10.99 8.73412 10.8892 8.48152 10.7071 8.29292L7.41408 4.99992L10.7071 1.70692C10.8892 1.51832 10.99 1.26572 10.9878 1.00352C10.9855 0.741322 10.8803 0.490509 10.6949 0.305101C10.5095 0.119693 10.2587 0.0145233 9.99648 0.0122448C9.73429 0.00996641 9.48168 0.110761 9.29308 0.292919L6.00008 3.58592L2.70708 0.292919Z"></path>
                </svg>