<svg viewBox="0 0 24 24" xmlns="http://www.w3.org/2000/svg">
                                            <g>
                                                <path d="M15.3822 1.36992C15.9965 1.10298 16.7103 1.39051 16.968 2.00865L18.2226
                                                 5.0178C18.3475 5.31728 18.5883 5.55343 18.8901 5.6724L21.9233 6.8678C22.5464
                                                 7.11336 22.8478 7.82143 22.593 8.44076L21.3523 11.4557C21.2288 11.7557 21.2321
                                                 12.093 21.3614 12.3906L22.6609 15.3806C22.9279 15.9948 22.6404 16.7087 22.0222
                                                 16.9664L19.0131 18.221C18.7136 18.3458 18.4774 18.5866 18.3585 18.8885L17.1631
                                                 21.9217C16.9175 22.5447 16.2094 22.8462 15.5901 22.5913L12.5752 21.3507C12.2751
                                                 21.2272 11.9379 21.2305 11.6403 21.3598L8.65026 22.6593C8.03604 22.9262 7.32219
                                                 22.6387 7.06447 22.0206L5.8099 19.0114C5.68504 18.7119 5.44422 18.4758 5.14235
                                                 18.3568L2.1092 17.1614C1.48613 16.9159 1.18467 16.2078 1.43953 15.5885L2.68021
                                                 12.5735C2.80368 12.2735 2.80038 11.9362 2.67105 11.6386L1.37156 8.64862C1.10462
                                                 8.0344 1.39214 7.32055 2.01029 7.06283L5.01944 5.80826C5.31892 5.6834 5.55507
                                                 5.44258 5.67404 5.14071L6.86943 2.10756C7.115 1.48449 7.82307 1.18303 8.4424
                                                 1.43789L11.4573 2.67857C11.7574 2.80204 12.0946 2.79874 12.3922 2.66941L15.3822 1.36992Z"></path>
                                                <path d="M8 13L9.7702 15.1242C10.1569 15.5883 10.8635 15.6062 11.2732 15.1623L16.5 9.5" stroke="white" stroke-width="2" stroke-linecap="round"></path>
                                            </g>
                                        </svg>