<svg viewBox="0 0 20 20" xmlns="http://www.w3.org/2000/svg">
                            <path d="M5.8299 4.03273C5.2152 4.12237 5.41369 4.83312 5.58978 5.17729C6.14205 4.14478 7.99896 5.24132
                         8.39115 6.52194C8.7049 7.54644 8.21712 8.22677 7.93431 8.43488H9.99132C9.99132 8.40286 9.99193 8.24758
                         9.99193 7.91462C9.99193 6.32025 9.02612 5.10525 8.54322 4.69705C8.79134 4.62769 9.30679 4.32407 9.38363
                         3.66455C9.23956 4.08876 6.59827 3.92068 5.8299 4.03273Z"></path>
                            <path d="M7.59053 11.1883V9.13927C5.2534 9.96367 4.96525 8.19481 5.72562 7.23434C4.81317 7.12229 2.37198
                         4.69711 1.42753 2.37598C-1.30981 4.24889 0.36301 9.53947 2.49205 11.0282C4.19528 12.2192 5.0533 10.8841
                         5.2694 10.0677C5.52819 10.3879 6.16424 10.9626 6.63807 10.7C7.1119 10.4375 7.47047 10.9161 7.59053 11.1883Z"></path>
                            <path d="M7.61475 12.5968V11.5883C4.97345 12.2366 7.07849 13.6293 6.91041 14.0775C6.77594 14.4361
                         5.33364 14.3336 4.6293 14.2376C4.12772 13.7653 3.03332 12.7376 2.66834 12.4047C2.82042 12.1566 2.42022
                         11.3642 2.10807 11.06C1.79592 10.7559 0.611341 11.044 0.763415 12.1726C0.885074 13.0754 1.87596 12.9116
                         2.35619 12.7168C2.72704 13.0503 3.63041 13.8838 4.27712 14.5497C3.94896 15.2381 4.72534 15.8624 5.2616
                         15.4622C5.65219 15.872 5.97928 15.9744 6.09401 15.9744C6.15003 15.881 6.12442 15.579 5.57375
                         15.118C5.84909 14.7466 6.98511 14.5364 7.5187 14.4777C7.35862 12.7088 9.23954 13.9894 9.33559
                         14.7738C8.03895 14.9259 5.6698 16.6067 7.29459 17.119C8.59442 17.5288 9.6344 18.5143 9.99191
                         18.9519L9.99191 14.3016C9.99191 13.3251 9.49566 13.3251 8.56721 13.3251C7.82445 13.3251 7.62275
                         12.8396 7.61475 12.5968Z"></path>
                            <path d="M14.1459 4.04079C14.7606 4.13043 14.5621 4.84118 14.3861 5.18534C13.8338 4.15284 11.9769
                         5.24938 11.5847 6.53C11.2709 7.5545 11.7581 8.22683 12.0409 8.43493H9.9839V7.92268C9.9839 6.3283
                         10.9497 5.11331 11.4326 4.70511C11.1845 4.63574 10.669 4.33213 10.5922 3.67261C10.7363 4.09681
                         13.3776 3.92873 14.1459 4.04079Z"></path>
                            <path d="M12.4095 11.1963V9.14733C14.7466 9.97173 15.0348 8.20287 14.2744 7.2424C15.1868 7.13035
                         17.628 4.70516 18.5725 2.38403C21.3098 4.25695 19.637 9.54752 17.508 11.0362C15.8047 12.2272 14.9467
                         10.8922 14.7306 10.0758C14.4718 10.3959 13.8358 10.9706 13.3619 10.7081C12.8881 10.4456 12.5295
                         10.9242 12.4095 11.1963Z"></path>
                            <path d="M12.3687 12.6047V11.5962C15.01 12.2445 12.905 13.6372 13.0731 14.0854C13.2075 14.444 13.7134
                         14.3495 14.4177 14.2535C14.5752 13.856 15.0259 12.8152 15.5383 12.8288C16.4427 12.8528 17.1391 14.5816
                         16.2827 15.5643C15.5143 16.2446 14.2736 15.8223 14.4177 15.1019C13.8895 14.6297 12.9023 14.6403 12.3687
                         14.5816C12.5288 12.8128 10.7439 13.9974 10.6479 14.7817C11.9445 14.9338 14.3137 16.6146 12.6889
                         17.1269C11.389 17.5367 10.3491 18.5142 9.99157 18.9518V14.3095C9.99157 13.333 10.4878 13.333 11.4163
                         13.333C12.159 13.333 12.3607 12.8475 12.3687 12.6047Z"></path>
                            <path d="M9.44795 10.4835L9.1438 10.2594C8.75694 10.1153 8.21535 9.74875 9.1438 9.435C10.3044 9.04281
                         9.49597 8.46653 9.94418 8.79469C10.2573 9.02396 10.4455 9.37043 10.4212 9.58299C10.7373 9.38667 11.3039
                         9.16332 11.2728 9.6351C11.2248 10.3635 11.3849 10.4835 10.8646 10.4835C10.3444 10.4835 10.2323 10.9798
                         10.8646 10.9798C11.4969 10.9798 11.561 11.1158 11.4569 11.404C11.3529 11.6921 10.8886 10.8677 10.6885
                         11.3079C10.5285 11.6601 10.8086 12.0576 10.9687 12.2124C11.0994 11.9536 11.3801 11.5256 11.4569
                         11.8842C11.553 12.3324 11.3849 13.1168 10.4724 13.0768C9.56 13.0368 9.1518 13.3169 8.89567 12.6526C8.7042
                         12.1559 9.15945 11.6672 9.45942 11.4464C9.19761 11.6198 8.76101 11.7873 8.71959 11.3079C8.66356 10.6596
                         7.9352 9.91523 8.41544 10.2594C8.79963 10.5347 9.26386 10.5235 9.44795 10.4835Z"></path>
                        </svg>