<svg width="1131" height="402" viewBox="0 0 1131 402" fill="none" xmlns="http://www.w3.org/2000/svg">
<g clip-path="url(#clip0_1451_2792)">
<rect width="402" height="402" rx="201" fill="white"/>
<rect x="-68" y="-28" width="538" height="152" fill="white"/>
<rect x="-68" y="124" width="538" height="153" fill="#1539A1"/>
<rect x="-68" y="277" width="538" height="152" fill="#C2281C"/>
<path d="M314.255 64H87.283L54 376.878L200.497 467L348 376.878L314.255 64Z" fill="url(#paint0_linear_1451_2792)"/>
<path fill-rule="evenodd" clip-rule="evenodd" d="M79 64C78.4477 64 78 64.4477 78 65V318.798C78 329.843 86.9543 338.798 98 338.798H185.874C193.3 342.79 200.395 350.385 200.818 363.733C200.813 364.17 200.819 364.593 200.837 365C200.837 364.572 200.831 364.15 200.818 363.733C200.901 356.319 204.37 344.739 214.605 338.798H303.564C314.61 338.798 323.564 329.843 323.564 318.798V65C323.564 64.4477 323.116 64 322.564 64H79Z" fill="url(#paint1_linear_1451_2792)"/>
<path d="M185.874 338.798L186.822 337.036L186.378 336.798H185.874V338.798ZM200.837 365L198.839 365.088L202.837 365H200.837ZM214.605 338.798V336.798H214.066L213.6 337.068L214.605 338.798ZM80 65C80 65.5523 79.5523 66 79 66V62C77.3431 62 76 63.3431 76 65H80ZM80 318.798V65H76V318.798H80ZM98 336.798C88.0589 336.798 80 328.739 80 318.798H76C76 330.948 85.8497 340.798 98 340.798V336.798ZM185.874 336.798H98V340.798H185.874V336.798ZM202.817 363.67C202.367 349.487 194.761 341.305 186.822 337.036L184.927 340.559C191.84 344.276 198.422 351.283 198.819 363.796L202.817 363.67ZM202.835 364.912C202.819 364.544 202.813 364.158 202.817 363.755L198.818 363.71C198.812 364.183 198.82 364.643 198.839 365.088L202.835 364.912ZM198.819 363.796C198.831 364.192 198.837 364.593 198.837 365H202.837C202.837 364.551 202.83 364.108 202.817 363.67L198.819 363.796ZM213.6 337.068C202.545 343.487 198.906 355.877 198.818 363.71L202.817 363.755C202.896 356.761 206.196 345.992 215.609 340.527L213.6 337.068ZM303.564 336.798H214.605V340.798H303.564V336.798ZM321.564 318.798C321.564 328.739 313.505 336.798 303.564 336.798V340.798C315.714 340.798 325.564 330.948 325.564 318.798H321.564ZM321.564 65V318.798H325.564V65H321.564ZM322.564 66C322.012 66 321.564 65.5523 321.564 65H325.564C325.564 63.3432 324.221 62 322.564 62V66ZM79 66H322.564V62H79V66Z" fill="black"/>
<path fill-rule="evenodd" clip-rule="evenodd" d="M228.381 152.892C231.017 152.079 235.61 152.015 238.804 154.815C238.804 151.821 236.216 149.162 235.314 148.823C234.128 149.034 230.108 150.772 228.381 152.892ZM227.041 136.498C237.69 136.463 247.731 136.43 249.001 143.22C249.447 145.599 248.303 149.222 247.067 150.263C246.845 149.51 245.695 147.045 242.052 146.492C223.656 143.713 208.297 172.065 222.164 183.529C222.372 183.703 222.253 184.025 221.97 184.025H180.405C180.119 184.025 180 183.703 180.211 183.529C194.075 172.065 178.716 143.713 160.32 146.492C156.68 147.045 155.526 149.51 155.305 150.264C154.069 149.222 152.925 145.598 153.367 143.22C154.639 136.43 164.681 136.463 175.331 136.498C182.301 136.521 189.531 136.545 194.732 134.657C194.988 137.932 190.684 143.18 186.571 145.123C193.602 151.225 199.914 163.519 201.184 178.539C202.458 163.519 208.77 151.225 215.801 145.123C211.688 143.18 207.388 137.932 207.64 134.657C212.842 136.545 220.072 136.521 227.041 136.498ZM173.882 152.892C171.249 152.079 166.656 152.015 163.459 154.815C163.459 151.821 166.05 149.161 166.953 148.823C168.135 149.034 172.162 150.772 173.882 152.892ZM258.64 230.146C261.19 230.146 263.124 234.891 263.124 234.891C263.124 234.891 261.03 239.054 258.64 239.054C256.251 239.054 254.156 234.891 254.156 234.891C254.156 234.891 256.09 230.146 258.64 230.146ZM265.626 178.024C284.764 180.613 299.704 173.614 302.252 172.324C302.436 172.23 302.667 172.346 302.694 172.544C303.665 180.501 298.639 186.898 290.059 188.314C281.425 189.741 263.202 185.434 263.202 185.434C262.841 186.258 262.45 187.069 262.031 187.865C274.091 194.788 291.016 194.051 293.573 193.897C293.75 193.887 293.9 194.024 293.897 194.192C293.699 202.554 285.551 204.848 278.361 203.87C272.215 203.036 263.631 198.951 257.561 194.329C256.954 195.006 256.304 195.642 255.64 196.252C261.442 205.766 275.068 209.671 279.507 210.026C279.722 210.046 279.851 210.267 279.746 210.445C276.831 215.485 270.26 217.16 263.083 213.716C258.987 211.749 253.94 206.728 250.317 201C250.284 200.947 250.25 200.894 250.217 200.84C250.095 200.646 249.974 200.45 249.856 200.253C249.021 200.665 250.748 199.945 249.856 200.253C257.552 206.773 250.348 201.44 249.856 200.253C249.363 199.067 257.328 200.253 253.459 200.253C252.219 200.253 251.282 200.447 250.491 200.735C250.397 200.769 250.306 200.804 250.217 200.84C249.841 200.994 250.491 199.133 250.317 201C250.877 200.956 252.026 200.763 252.842 200.634C253.625 200.51 254.102 200.444 253.459 200.626C253.459 196.757 257.493 199.489 253.459 200.626C253.459 200.626 253.237 200.625 252.842 200.634C252.322 200.645 251.5 200.672 250.491 200.735C247.813 200.902 243.812 201.327 240.595 202.403C237.104 202.403 229.124 203.904 226.458 210.967C226.346 211.265 225.872 211.188 225.872 210.877V191.53C225.872 191.332 226.077 191.201 226.274 191.265C230.659 192.715 235.225 192.893 238.389 192.28C244.613 191.178 249.321 186.098 249.321 179.99C249.321 176.476 247.762 173.311 245.253 171.038C244.722 170.555 244.79 169.745 245.413 169.366C245.683 169.204 245.951 169.037 246.216 168.867C267.98 155.036 287.802 122.997 289.92 119.504C289.97 119.427 290.051 119.376 290.141 119.363C290.232 119.35 290.324 119.377 290.393 119.437C297.087 125.318 297.734 136.851 290.7 145.894C286.045 151.875 276.273 158.415 266.263 164.092C266.406 165.151 266.503 166.216 266.556 167.284C287.165 162.86 300.247 148.63 302.327 146.235C302.463 146.078 302.735 146.112 302.834 146.299C306.63 153.734 303.341 163.727 295.82 167.913C289.221 171.584 278.867 173.744 266.13 175.268C265.992 176.192 265.824 177.111 265.626 178.024ZM252 239.941C252 239.941 255.341 245.165 258.64 245.166C261.94 245.167 265.283 239.943 265.283 239.943C269.093 242.203 271.483 246.353 270.925 250.974C270.285 256.249 265.654 260.515 259.975 261.071C254.977 261.564 250.547 259.263 248.15 255.666C244.398 251.939 234.919 249.159 227.225 249.159C226.026 249.159 225.468 248.148 225.88 247.157C228.961 239.746 222.336 234.377 215.485 238.747C212.496 240.653 209.459 244.407 207.168 250.669C218.413 253.393 232.537 260.893 235.386 269.082C236.493 272.243 232.853 276.554 228.444 277.421C228.366 277.438 228.284 277.423 228.217 277.379C228.15 277.336 228.103 277.268 228.086 277.189C225.781 264.965 212.639 255.857 205.795 254.309C205.581 254.883 205.544 254.984 205.464 255.2C205.415 255.331 205.351 255.504 205.223 255.85C212.673 259.373 219.894 266.804 221.961 275.639C222.905 279.685 218.396 283.332 214.668 284.329C214.484 284.38 214.297 284.246 214.287 284.064C213.582 272.893 208.645 263.408 204.229 259.091C204.107 259.935 204.015 260.783 203.954 261.633L208.478 283.442C208.478 283.442 202.122 290.709 200.947 291.128C200.007 290.709 193.647 283.442 193.647 283.442L198.172 261.633C198.111 260.783 198.021 259.935 197.899 259.091C193.48 263.408 188.547 272.896 187.839 284.068C187.828 284.249 187.644 284.38 187.457 284.33C183.732 283.331 179.221 279.684 180.168 275.638C182.231 266.804 189.456 259.373 196.906 255.85C196.703 255.308 196.659 255.19 196.586 254.995C196.535 254.859 196.471 254.687 196.33 254.309C189.49 255.856 176.344 264.966 174.039 277.19C174.023 277.268 173.976 277.337 173.909 277.38C173.841 277.424 173.76 277.438 173.681 277.421C169.269 276.553 165.636 272.244 166.736 269.082C169.592 260.893 183.712 253.392 194.958 250.669C192.67 244.407 189.633 240.652 186.643 238.747C179.789 234.377 173.163 239.745 176.245 247.156C176.657 248.148 176.095 249.159 174.9 249.159C168.097 249.159 159.902 251.332 155.503 254.417C155.503 254.417 160.835 259.366 160.92 259.46C161.305 259.816 161.584 260.284 161.625 260.83C161.724 262.039 160.75 263.094 159.449 263.181C158.735 263.231 158.095 262.964 157.621 262.535L152.303 257.598C150.716 258.526 148.738 258.935 146.634 258.512C143.655 257.91 141.322 255.589 140.846 252.789C140.543 250.997 140.982 249.316 141.905 247.947C141.905 247.947 121.813 228.964 121.646 228.74L120.7 229.199C118.545 230.488 116.1 227.752 116.1 227.752C116.1 227.752 107.544 229.654 105.446 222.561C106.873 222.682 108.278 223.405 109.767 222.611C112.651 221.074 108.799 214.299 108.799 214.299C108.799 214.299 115.969 217.764 117.294 214.718C117.956 213.197 117.185 211.875 116.971 210.481C124.298 212.086 123.827 220.66 123.827 220.66C123.827 220.66 125.85 222.833 124.676 225.029L124.506 225.425C124.884 225.616 145.513 245.147 145.513 245.147C146.403 244.817 147.345 244.648 148.294 244.648C150.528 244.648 152.524 245.552 153.906 246.985C159.156 247.628 170.348 245.086 169.299 243.499C157.361 226.714 166.497 216.721 177.467 217.276V228.549C177.467 232.169 180.62 235.103 184.514 235.103H192.09C197.524 235.103 201.061 240.565 201.061 240.565C201.061 240.565 204.599 235.103 210.033 235.103H217.608C221.5 235.103 224.66 232.169 224.66 228.549V217.276C235.63 216.72 244.758 226.713 232.824 243.499C231.765 245.103 242.654 247.521 246.648 246.961C247.404 244.025 249.351 241.519 252 239.941ZM215.651 214.747C215.777 211.331 212.069 210.622 209.703 211.498C208.998 211.763 208.553 212.078 208.72 212.955C209.157 215.24 209.568 217.529 209.997 219.918C210.166 220.856 210.337 221.81 210.514 222.785C212.465 220.658 216.479 219.754 216.479 222.48C216.479 225.678 213.684 228.659 209.871 230.541L203.209 212.261L196.548 193.98C197.511 193.742 199.387 193.695 200.078 193.81C199.837 193.378 199.745 192.975 199.745 192.6C199.745 190.912 200.96 190.155 202.053 190.155C203.439 190.155 203.875 191.194 203.875 191.756C203.875 192.708 202.949 193.628 202.642 193.863C201.992 194.348 202.115 194.727 202.584 195.279C203.068 195.845 204.076 197.144 204.286 197.932C205.683 195.842 210.763 194.75 212.792 196.217C215.216 197.965 214.736 201.589 212.666 203.929C212.36 204.278 211.845 204.804 211.433 204.787C210.772 204.764 210.48 204.271 210.545 203.457C210.553 203.343 210.566 203.209 210.58 203.064C210.676 202.031 210.831 200.376 210.156 200.376C208.729 200.376 208.852 202.691 209.186 203.923C209.469 204.954 209.729 205.99 210.006 207.097C210.139 207.627 210.276 208.173 210.421 208.742C214.037 208.143 217.493 209.616 216.785 214.73C216.707 215.52 215.62 215.52 215.651 214.747ZM193.663 194.439L190.864 186.663C190.568 185.775 191.777 185.366 192.114 186.22L208.6 231.455C205.465 233.002 196.101 234.233 191.334 229.62C189.686 230.386 185.369 229.657 185.369 226.033C185.369 225.403 185.645 223.933 186.217 223.073C186.735 222.292 187.126 222.744 186.963 223.377C186.524 225.078 187.157 225.383 188.403 225.39C188.145 221.321 190.051 216.82 191.277 214.861C191.767 214.074 191.767 213.495 191.481 212.678C191.048 211.448 190.929 210.34 191.123 209.382C190.55 209.382 190.405 210.114 190.227 211.014C189.942 212.453 189.572 214.322 187.235 214.322C188.257 212.855 187.916 211.606 187.007 210.34C185.703 208.511 185.74 206.894 186.99 205.939C188.233 204.991 190.848 205.558 192.519 207.115C193.228 206.351 195.386 205.819 196.53 205.819C196.04 205.246 195.859 204.62 196.016 203.917C192.863 204.158 187.412 202.152 187.412 199.071C187.412 196.757 191.266 195.009 193.663 194.439ZM195.839 215.521C192.543 218.732 189.952 222.061 190.292 223.923C191.718 222.912 194.558 222.463 196.948 222.463C195.573 221.221 195.137 217.614 195.839 215.521Z" fill="url(#paint2_linear_1451_2792)"/>
<path d="M138.985 186.963C139.348 187.787 139.74 188.598 140.16 189.394C128.104 196.313 111.185 195.583 108.618 195.426C108.438 195.416 108.288 195.56 108.291 195.724C108.493 204.083 116.637 206.377 123.827 205.399C129.97 204.565 138.557 200.479 144.627 195.858C145.237 196.534 145.884 197.171 146.547 197.78C140.743 207.294 127.12 211.199 122.68 211.554C122.466 211.574 122.34 211.795 122.442 211.973C125.357 217.013 131.928 218.688 139.109 215.245C143.378 213.192 148.686 207.817 152.333 201.782C153.17 202.194 158.727 205.135 159.616 205.443C163.519 206.796 161.914 206.313 165.057 207.534C168.199 208.755 173.064 205.433 175.73 212.495C175.846 212.793 176.319 212.716 176.319 212.405V193.058C176.245 192.28 175.927 191.693 175.73 191.756C171.345 193.206 166.963 194.421 163.803 193.808C157.576 192.706 152.867 187.626 152.867 181.517C152.867 178.004 154.43 174.836 156.936 172.562C157.47 172.083 157.399 171.272 156.779 170.894C156.507 170.731 156.237 170.565 155.969 170.395C134.219 156.571 114.406 124.555 112.271 121.038C112.172 120.874 111.934 120.841 111.788 120.968C105.104 126.852 104.454 138.382 111.488 147.421C116.142 153.402 125.914 159.943 135.921 165.62C135.78 166.679 135.683 167.743 135.632 168.811C115.039 164.39 101.968 150.183 99.8676 147.772C99.7281 147.608 99.4484 147.642 99.3533 147.829C95.5645 155.268 98.8532 165.254 106.368 169.44C112.966 173.111 123.32 175.271 136.057 176.795C136.195 177.719 136.363 178.638 136.561 179.551C117.443 182.136 102.51 175.154 99.9428 173.854C99.7521 173.757 99.5204 173.878 99.4967 174.079C98.5303 182.036 103.552 188.426 112.132 189.842C120.763 191.269 138.985 186.963 138.985 186.963Z" fill="url(#paint3_linear_1451_2792)"/>
<path d="M250.217 200.84C250.306 200.804 250.397 200.769 250.491 200.735C251.282 200.447 252.219 200.253 253.459 200.253C257.328 200.253 249.363 199.067 249.856 200.253C249.974 200.45 250.095 200.646 250.217 200.84Z" fill="url(#paint4_linear_1451_2792)"/>
<path d="M302.252 172.324C299.704 173.614 284.764 180.613 265.626 178.024C265.824 177.111 265.992 176.192 266.13 175.268C278.867 173.744 289.221 171.584 295.82 167.913C303.341 163.727 306.63 153.734 302.834 146.299C302.735 146.112 302.463 146.078 302.327 146.235C300.247 148.63 287.165 162.86 266.556 167.284C266.503 166.216 266.406 165.151 266.263 164.092C276.273 158.415 286.045 151.875 290.7 145.894C297.734 136.851 297.087 125.318 290.393 119.437C290.324 119.377 290.232 119.35 290.141 119.363C290.051 119.376 289.97 119.427 289.92 119.504C287.802 122.997 267.98 155.036 246.216 168.867C245.951 169.037 245.683 169.204 245.413 169.366C244.79 169.745 244.722 170.555 245.253 171.038C247.762 173.311 249.321 176.476 249.321 179.99C249.321 186.098 244.613 191.178 238.389 192.28C235.225 192.893 230.659 192.715 226.274 191.265C226.077 191.201 225.872 191.332 225.872 191.53V210.877C225.872 211.188 226.346 211.265 226.458 210.967C229.124 203.904 237.104 202.403 240.595 202.403C243.812 201.327 247.813 200.902 250.491 200.735C251.5 200.672 252.322 200.645 252.842 200.634C253.237 200.625 253.459 200.626 253.459 200.626C254.102 200.444 253.625 200.51 252.842 200.634C252.026 200.763 250.877 200.956 250.317 201C250.491 199.133 249.841 200.994 250.217 200.84C250.095 200.646 249.974 200.45 249.856 200.253C249.363 199.067 257.328 200.253 253.459 200.253C252.219 200.253 251.282 200.447 250.491 200.735C250.397 200.769 250.306 200.804 250.217 200.84C250.25 200.894 250.284 200.947 250.317 201C253.94 206.728 258.987 211.749 263.083 213.716C270.26 217.16 276.831 215.485 279.746 210.445C279.851 210.267 279.722 210.046 279.507 210.026C275.068 209.671 261.442 205.766 255.64 196.252C256.304 195.642 256.954 195.006 257.561 194.329C263.631 198.951 272.215 203.036 278.361 203.87C285.551 204.848 293.699 202.554 293.897 194.192C293.9 194.024 293.75 193.887 293.573 193.897C291.016 194.051 274.091 194.788 262.031 187.865C262.45 187.069 262.841 186.258 263.202 185.434C263.202 185.434 281.425 189.741 290.059 188.314C298.639 186.898 303.665 180.501 302.694 172.544C302.667 172.346 302.436 172.23 302.252 172.324Z" fill="url(#paint5_linear_1451_2792)"/>
<path d="M252.842 200.634C252.322 200.645 251.5 200.672 250.491 200.735C250.397 200.769 250.306 200.804 250.217 200.84C250.25 200.894 250.284 200.947 250.317 201C250.877 200.956 252.026 200.763 252.842 200.634Z" fill="url(#paint6_linear_1451_2792)"/>
</g>
<path d="M537.939 61.1753V163H522.836V117.122H469.725V163H454.551V61.1753H469.725V106.131H522.836V61.1753H537.939ZM597.07 131.02C591.445 131.209 586.67 131.658 582.747 132.367C578.823 133.029 575.632 133.927 573.174 135.062C570.716 136.197 568.943 137.544 567.856 139.104C566.769 140.617 566.225 142.318 566.225 144.209C566.225 146.006 566.509 147.566 567.076 148.889C567.691 150.166 568.494 151.229 569.487 152.08C570.527 152.884 571.732 153.475 573.103 153.853C574.474 154.231 575.963 154.42 577.571 154.42C579.698 154.42 581.636 154.207 583.385 153.782C585.181 153.356 586.86 152.766 588.42 152.009C589.98 151.206 591.469 150.236 592.887 149.102C594.305 147.967 595.7 146.667 597.07 145.202V131.02ZM556.511 101.026C560.529 97.1968 564.878 94.3369 569.558 92.446C574.285 90.5551 579.461 89.6096 585.087 89.6096C589.2 89.6096 592.84 90.2951 596.007 91.666C599.174 92.9896 601.845 94.8569 604.019 97.2677C606.194 99.6786 607.825 102.562 608.912 105.919C610.047 109.275 610.614 112.986 610.614 117.051V163H604.445C603.074 163 602.034 162.787 601.325 162.362C600.616 161.889 600.049 161.038 599.623 159.809L598.134 153.498C596.29 155.2 594.47 156.713 592.674 158.036C590.878 159.313 588.987 160.424 587.001 161.369C585.063 162.267 582.983 162.953 580.761 163.425C578.54 163.898 576.081 164.135 573.387 164.135C570.551 164.135 567.88 163.756 565.374 163C562.916 162.196 560.765 160.991 558.922 159.384C557.078 157.776 555.613 155.767 554.525 153.356C553.485 150.946 552.965 148.133 552.965 144.918C552.965 142.082 553.722 139.364 555.234 136.764C556.794 134.117 559.3 131.753 562.751 129.673C566.249 127.593 570.787 125.891 576.365 124.568C581.991 123.244 588.892 122.488 597.07 122.298V117.051C597.07 111.615 595.912 107.549 593.596 104.855C591.28 102.16 587.876 100.813 583.385 100.813C580.36 100.813 577.807 101.191 575.727 101.948C573.694 102.704 571.922 103.555 570.409 104.5C568.943 105.399 567.643 106.226 566.509 106.982C565.422 107.739 564.287 108.117 563.105 108.117C562.16 108.117 561.332 107.857 560.623 107.337C559.962 106.817 559.418 106.202 558.993 105.493L556.511 101.026ZM642.952 145.273C645.221 148.251 647.655 150.331 650.255 151.513C652.902 152.695 655.857 153.286 659.119 153.286C665.453 153.286 670.346 151.016 673.797 146.478C677.295 141.893 679.044 135.227 679.044 126.482C679.044 121.897 678.642 117.997 677.839 114.782C677.082 111.52 675.948 108.873 674.435 106.84C672.97 104.76 671.15 103.248 668.975 102.302C666.801 101.31 664.342 100.813 661.601 100.813C657.582 100.813 654.084 101.711 651.106 103.508C648.175 105.304 645.457 107.857 642.952 111.166V145.273ZM642.243 101.735C643.755 99.9386 645.362 98.3077 647.064 96.8423C648.813 95.3296 650.681 94.0532 652.666 93.0132C654.652 91.926 656.755 91.0987 658.977 90.5314C661.246 89.9169 663.657 89.6096 666.21 89.6096C670.322 89.6096 674.033 90.4132 677.342 92.0205C680.699 93.6278 683.559 95.9914 685.922 99.1114C688.286 102.231 690.106 106.084 691.382 110.669C692.706 115.255 693.368 120.526 693.368 126.482C693.368 131.824 692.635 136.787 691.169 141.373C689.751 145.911 687.695 149.858 685 153.215C682.353 156.571 679.091 159.218 675.215 161.156C671.386 163.047 667.061 163.993 662.239 163.993C657.937 163.993 654.25 163.284 651.177 161.865C648.104 160.447 645.362 158.462 642.952 155.909V187.18H629.124V90.9569H637.421C639.359 90.9569 640.564 91.8787 641.037 93.7223L642.243 101.735ZM739.461 89.8223C744.756 89.8223 749.53 90.6969 753.785 92.446C758.087 94.1478 761.727 96.6296 764.705 99.8914C767.73 103.106 770.047 107.006 771.654 111.591C773.261 116.129 774.065 121.235 774.065 126.908C774.065 132.58 773.261 137.709 771.654 142.295C770.047 146.88 767.73 150.78 764.705 153.995C761.727 157.209 758.087 159.691 753.785 161.44C749.53 163.142 744.756 163.993 739.461 163.993C734.12 163.993 729.298 163.142 724.996 161.44C720.742 159.691 717.102 157.209 714.076 153.995C711.051 150.78 708.711 146.88 707.056 142.295C705.449 137.709 704.645 132.58 704.645 126.908C704.645 121.235 705.449 116.129 707.056 111.591C708.711 107.006 711.051 103.106 714.076 99.8914C717.102 96.6296 720.742 94.1478 724.996 92.446C729.298 90.6969 734.12 89.8223 739.461 89.8223ZM739.461 153.215C746.269 153.215 751.35 150.922 754.707 146.336C758.063 141.751 759.741 135.298 759.741 126.978C759.741 118.659 758.063 112.206 754.707 107.62C751.35 102.988 746.269 100.671 739.461 100.671C732.56 100.671 727.407 102.988 724.003 107.62C720.647 112.206 718.969 118.659 718.969 126.978C718.969 135.298 720.647 141.751 724.003 146.336C727.407 150.922 732.56 153.215 739.461 153.215ZM836.217 152.931V101.806H814.661C814.188 108.802 813.55 115.042 812.747 120.526C811.943 126.009 810.998 130.831 809.91 134.991C808.87 139.104 807.712 142.649 806.436 145.627C805.159 148.558 803.812 150.993 802.394 152.931H836.217ZM862.808 152.506V183.351C862.808 184.674 862.43 185.714 861.674 186.471C860.964 187.227 860.019 187.605 858.837 187.605H850.257V163H791.403V183.634C791.403 184.674 791.096 185.596 790.481 186.4C789.867 187.203 788.898 187.605 787.574 187.605H778.781V152.931H781.121C782.776 152.931 784.407 152.671 786.014 152.151C787.621 151.631 789.158 150.591 790.623 149.031C792.136 147.471 793.554 145.273 794.878 142.437C796.201 139.6 797.407 135.889 798.494 131.304C799.581 126.718 800.527 121.14 801.33 114.569C802.134 107.951 802.772 100.08 803.245 90.9569H849.619V152.506H862.808ZM935.925 90.9569V163H922.027V129.815H889.054V163H875.227V90.9569H889.054V119.32H922.027V90.9569H935.925ZM983.356 152.86C988.083 152.86 991.629 151.726 993.992 149.456C996.356 147.14 997.538 144.209 997.538 140.664C997.538 139.057 997.278 137.544 996.758 136.126C996.238 134.66 995.41 133.407 994.276 132.367C993.141 131.28 991.652 130.429 989.809 129.815C988.012 129.153 985.791 128.822 983.143 128.822H968.465V152.86H983.356ZM983.143 118.753C988.107 118.753 992.29 119.368 995.694 120.597C999.145 121.778 1001.91 123.386 1003.99 125.418C1006.07 127.404 1007.56 129.72 1008.46 132.367C1009.4 134.967 1009.88 137.686 1009.88 140.522C1009.88 143.784 1009.28 146.809 1008.1 149.598C1006.97 152.34 1005.27 154.704 1003 156.689C1000.73 158.675 997.94 160.235 994.63 161.369C991.369 162.456 987.61 163 983.356 163H955.276V90.9569H968.465V118.753H983.143ZM1038.88 90.9569V163H1025.05V90.9569H1038.88ZM1120.86 90.9569V163H1106.96V115.917C1106.96 114.971 1107.01 113.931 1107.1 112.797C1107.19 111.615 1107.34 110.433 1107.53 109.251C1107.05 110.244 1106.58 111.189 1106.11 112.088C1105.68 112.939 1105.23 113.695 1104.76 114.357L1071.65 159.525C1071.13 160.376 1070.44 161.18 1069.59 161.936C1068.74 162.693 1067.77 163.071 1066.68 163.071H1058.32V90.9569H1072.14V138.111C1072.14 139.057 1072.1 140.12 1072 141.302C1071.91 142.437 1071.76 143.571 1071.58 144.706C1072.52 142.626 1073.44 140.947 1074.34 139.671L1107.45 94.4314C1107.97 93.6278 1108.66 92.8478 1109.51 92.0914C1110.41 91.3351 1111.4 90.9569 1112.49 90.9569H1120.86ZM1090.44 73.2297C1092.33 73.2297 1093.91 73.017 1095.19 72.5916C1096.51 72.1661 1097.55 71.4807 1098.31 70.5352C1099.11 69.5898 1099.68 68.3607 1100.01 66.848C1100.39 65.288 1100.58 63.3971 1100.58 61.1753H1108.73C1109.68 61.1753 1110.41 61.6007 1110.93 62.4516C1111.45 63.3025 1111.71 64.248 1111.71 65.288C1111.71 67.6516 1111.21 69.7789 1110.22 71.6697C1109.27 73.5606 1107.88 75.1915 1106.04 76.5624C1104.19 77.8861 1101.95 78.9261 1099.3 79.6824C1096.7 80.3915 1093.75 80.746 1090.44 80.746C1087.13 80.746 1084.15 80.3915 1081.5 79.6824C1078.9 78.9261 1076.68 77.8861 1074.84 76.5624C1072.99 75.1915 1071.58 73.5606 1070.58 71.6697C1069.64 69.7789 1069.16 67.6516 1069.16 65.288C1069.16 64.248 1069.42 63.3025 1069.94 62.4516C1070.46 61.6007 1071.2 61.1753 1072.14 61.1753H1080.3C1080.3 63.3971 1080.46 65.288 1080.79 66.848C1081.17 68.3607 1081.74 69.5898 1082.5 70.5352C1083.3 71.4807 1084.34 72.1661 1085.61 72.5916C1086.94 73.017 1088.55 73.2297 1090.44 73.2297Z" fill="black"/>
<path d="M448.665 243.677C452.542 240.273 457.056 237.673 462.209 235.877C467.409 234.033 473.247 233.112 479.723 233.112C485.018 233.112 489.792 233.773 494.047 235.097C498.301 236.373 501.918 238.17 504.896 240.486C507.874 242.802 510.167 245.568 511.774 248.782C513.381 251.997 514.185 255.519 514.185 259.348C514.185 264.359 512.956 268.802 510.498 272.679C508.087 276.508 504.612 279.557 500.074 281.826C502.627 282.96 504.943 284.308 507.023 285.868C509.103 287.428 510.876 289.2 512.341 291.186C513.854 293.124 515.012 295.251 515.816 297.568C516.667 299.837 517.092 302.248 517.092 304.8C517.092 309.291 516.265 313.498 514.61 317.422C512.956 321.298 510.521 324.702 507.307 327.633C504.14 330.516 500.24 332.809 495.607 334.511C490.974 336.165 485.68 336.993 479.723 336.993C472.443 336.993 465.825 335.787 459.869 333.376C453.913 330.965 448.854 327.727 444.695 323.662L449.02 316.429C449.398 315.862 449.894 315.389 450.509 315.011C451.124 314.633 451.785 314.444 452.494 314.444C453.534 314.444 454.764 314.964 456.182 316.004C457.6 317.044 459.373 318.202 461.5 319.478C463.627 320.707 466.18 321.842 469.158 322.882C472.183 323.922 475.847 324.442 480.149 324.442C487.381 324.442 492.983 322.811 496.954 319.549C500.925 316.24 502.91 311.56 502.91 305.509C502.91 302.957 502.39 300.617 501.35 298.489C500.358 296.362 498.916 294.542 497.025 293.029C495.134 291.517 492.841 290.359 490.147 289.555C487.452 288.704 484.403 288.302 481 288.349H466.96V275.94H480.22C483.151 275.94 485.822 275.61 488.232 274.948C490.691 274.239 492.794 273.246 494.543 271.97C496.292 270.646 497.64 269.039 498.585 267.148C499.578 265.21 500.074 263.011 500.074 260.553C500.074 258.331 499.601 256.299 498.656 254.455C497.758 252.612 496.434 251.052 494.685 249.775C492.983 248.452 490.856 247.435 488.303 246.726C485.798 245.97 482.938 245.592 479.723 245.592C475.989 245.592 472.798 245.993 470.151 246.797C467.551 247.553 465.329 248.428 463.485 249.421C461.642 250.366 460.105 251.241 458.876 252.044C457.694 252.801 456.678 253.179 455.827 253.179C455.024 253.179 454.362 252.99 453.842 252.612C453.322 252.233 452.825 251.642 452.353 250.839L448.665 243.677ZM571.172 304.02C565.547 304.209 560.772 304.658 556.849 305.367C552.925 306.029 549.734 306.927 547.276 308.062C544.818 309.197 543.045 310.544 541.958 312.104C540.871 313.617 540.327 315.318 540.327 317.209C540.327 319.006 540.611 320.566 541.178 321.889C541.792 323.166 542.596 324.229 543.589 325.08C544.629 325.884 545.834 326.475 547.205 326.853C548.576 327.231 550.065 327.42 551.672 327.42C553.8 327.42 555.738 327.207 557.487 326.782C559.283 326.356 560.961 325.766 562.521 325.009C564.081 324.206 565.57 323.236 566.989 322.102C568.407 320.967 569.801 319.667 571.172 318.202V304.02ZM530.612 274.026C534.631 270.197 538.98 267.337 543.66 265.446C548.387 263.555 553.563 262.61 559.189 262.61C563.301 262.61 566.941 263.295 570.109 264.666C573.276 265.99 575.947 267.857 578.121 270.268C580.296 272.679 581.927 275.562 583.014 278.919C584.148 282.275 584.716 285.986 584.716 290.051V336H578.547C577.176 336 576.136 335.787 575.427 335.362C574.718 334.889 574.15 334.038 573.725 332.809L572.236 326.498C570.392 328.2 568.572 329.713 566.776 331.036C564.979 332.313 563.089 333.424 561.103 334.369C559.165 335.267 557.085 335.953 554.863 336.425C552.641 336.898 550.183 337.135 547.489 337.135C544.652 337.135 541.981 336.756 539.476 336C537.018 335.196 534.867 333.991 533.023 332.384C531.18 330.776 529.714 328.767 528.627 326.356C527.587 323.946 527.067 321.133 527.067 317.918C527.067 315.082 527.823 312.364 529.336 309.764C530.896 307.117 533.402 304.753 536.852 302.673C540.351 300.593 544.889 298.891 550.467 297.568C556.092 296.244 562.994 295.488 571.172 295.298V290.051C571.172 284.615 570.014 280.549 567.698 277.855C565.381 275.16 561.978 273.813 557.487 273.813C554.461 273.813 551.909 274.191 549.829 274.948C547.796 275.704 546.023 276.555 544.511 277.5C543.045 278.399 541.745 279.226 540.611 279.982C539.523 280.739 538.389 281.117 537.207 281.117C536.262 281.117 535.434 280.857 534.725 280.337C534.063 279.817 533.52 279.202 533.094 278.493L530.612 274.026ZM665.768 263.957V336H651.869V288.917C651.869 287.971 651.917 286.931 652.011 285.797C652.106 284.615 652.248 283.433 652.437 282.251C651.964 283.244 651.491 284.189 651.019 285.088C650.593 285.939 650.144 286.695 649.671 287.357L616.557 332.525C616.037 333.376 615.352 334.18 614.501 334.936C613.65 335.693 612.681 336.071 611.593 336.071H603.226V263.957H617.053V311.111C617.053 312.057 617.006 313.12 616.912 314.302C616.817 315.437 616.675 316.571 616.486 317.706C617.432 315.626 618.353 313.947 619.252 312.671L652.366 267.431C652.886 266.628 653.571 265.848 654.422 265.091C655.32 264.335 656.313 263.957 657.4 263.957H665.768ZM635.348 246.23C637.239 246.23 638.822 246.017 640.099 245.592C641.422 245.166 642.462 244.481 643.219 243.535C644.022 242.59 644.59 241.361 644.92 239.848C645.299 238.288 645.488 236.397 645.488 234.175H653.642C654.588 234.175 655.32 234.601 655.84 235.452C656.36 236.303 656.62 237.248 656.62 238.288C656.62 240.652 656.124 242.779 655.131 244.67C654.186 246.561 652.791 248.192 650.948 249.562C649.104 250.886 646.859 251.926 644.211 252.682C641.611 253.392 638.657 253.746 635.348 253.746C632.039 253.746 629.061 253.392 626.413 252.682C623.813 251.926 621.591 250.886 619.748 249.562C617.904 248.192 616.486 246.561 615.493 244.67C614.548 242.779 614.075 240.652 614.075 238.288C614.075 237.248 614.335 236.303 614.855 235.452C615.375 234.601 616.108 234.175 617.053 234.175H625.208C625.208 236.397 625.373 238.288 625.704 239.848C626.082 241.361 626.65 242.59 627.406 243.535C628.21 244.481 629.25 245.166 630.526 245.592C631.85 246.017 633.457 246.23 635.348 246.23ZM766.124 263.744V336H753.644V290.193C753.644 288.775 753.715 287.168 753.857 285.371C754.046 283.575 754.306 281.92 754.637 280.408L730.528 323.095C730.103 323.898 729.559 324.536 728.897 325.009C728.235 325.435 727.455 325.647 726.557 325.647H724.997C724.146 325.647 723.366 325.435 722.657 325.009C721.995 324.536 721.452 323.898 721.026 323.095L696.563 280.266C696.847 281.779 697.083 283.457 697.272 285.3C697.461 287.097 697.556 288.728 697.556 290.193V336H685.076V263.744H696.279C697.225 263.744 698.17 263.957 699.116 264.382C700.061 264.808 700.865 265.635 701.527 266.864L722.586 302.46C723.201 303.595 723.768 304.8 724.288 306.077C724.808 307.353 725.305 308.629 725.777 309.906C726.25 308.629 726.723 307.353 727.195 306.077C727.715 304.8 728.283 303.595 728.897 302.46L749.673 266.864C750.335 265.588 751.139 264.761 752.084 264.382C753.03 263.957 753.975 263.744 754.921 263.744H766.124Z" fill="black"/>
<defs>
<linearGradient id="paint0_linear_1451_2792" x1="201" y1="64" x2="201" y2="467" gradientUnits="userSpaceOnUse">
<stop stop-opacity="0.12"/>
<stop offset="0.89175" stop-opacity="0.22"/>
</linearGradient>
<linearGradient id="paint1_linear_1451_2792" x1="200.782" y1="64" x2="200.782" y2="365" gradientUnits="userSpaceOnUse">
<stop stop-color="#D5382C"/>
<stop offset="1" stop-color="#C42E22"/>
</linearGradient>
<linearGradient id="paint2_linear_1451_2792" x1="201.096" y1="119.359" x2="201.096" y2="291.128" gradientUnits="userSpaceOnUse">
<stop stop-color="#FFDE6B"/>
<stop offset="1" stop-color="#FFDE6B"/>
</linearGradient>
<linearGradient id="paint3_linear_1451_2792" x1="201.096" y1="119.359" x2="201.096" y2="291.128" gradientUnits="userSpaceOnUse">
<stop stop-color="#FFDE6B"/>
<stop offset="1" stop-color="#FFDE6B"/>
</linearGradient>
<linearGradient id="paint4_linear_1451_2792" x1="201.096" y1="119.359" x2="201.096" y2="291.128" gradientUnits="userSpaceOnUse">
<stop stop-color="#FFDE6B"/>
<stop offset="1" stop-color="#FFDE6B"/>
</linearGradient>
<linearGradient id="paint5_linear_1451_2792" x1="201.096" y1="119.359" x2="201.096" y2="291.128" gradientUnits="userSpaceOnUse">
<stop stop-color="#FFDE6B"/>
<stop offset="1" stop-color="#FFDE6B"/>
</linearGradient>
<linearGradient id="paint6_linear_1451_2792" x1="201.096" y1="119.359" x2="201.096" y2="291.128" gradientUnits="userSpaceOnUse">
<stop stop-color="#FFDE6B"/>
<stop offset="1" stop-color="#FFDE6B"/>
</linearGradient>
<clipPath id="clip0_1451_2792">
<rect width="402" height="402" rx="201" fill="white"/>
</clipPath>
</defs>
</svg>
